<?xml version="1.0" encoding="UTF-8" standalone="no"?>
<svg
   xmlns:dc="http://purl.org/dc/elements/1.1/"
   xmlns:cc="http://creativecommons.org/ns#"
   xmlns:rdf="http://www.w3.org/1999/02/22-rdf-syntax-ns#"
   xmlns:svg="http://www.w3.org/2000/svg"
   xmlns="http://www.w3.org/2000/svg"
   xmlns:sodipodi="http://sodipodi.sourceforge.net/DTD/sodipodi-0.dtd"
   xmlns:inkscape="http://www.inkscape.org/namespaces/inkscape"
   width="465pt"
   height="222pt"
   viewBox="0 0 465 222"
   version="1.1"
   id="svg384"
   sodipodi:docname="LOGO-ESCUDO.svg"
   inkscape:version="0.92.2 (5c3e80d, 2017-08-06)">
  <metadata
     id="metadata390">
    <rdf:RDF>
      <cc:Work
         rdf:about="">
        <dc:format>image/svg+xml</dc:format>
        <dc:type
           rdf:resource="http://purl.org/dc/dcmitype/StillImage" />
        <dc:title></dc:title>
      </cc:Work>
    </rdf:RDF>
  </metadata>
  <defs
     id="defs388" />
  <sodipodi:namedview
     pagecolor="#ffffff"
     bordercolor="#666666"
     borderopacity="1"
     objecttolerance="10"
     gridtolerance="10"
     guidetolerance="10"
     inkscape:pageopacity="0"
     inkscape:pageshadow="2"
     inkscape:window-width="1360"
     inkscape:window-height="745"
     id="namedview386"
     showgrid="false"
     inkscape:pagecheckerboard="true"
     inkscape:zoom="0.79606538"
     inkscape:cx="474.81942"
     inkscape:cy="144.6422"
     inkscape:window-x="-8"
     inkscape:window-y="-8"
     inkscape:window-maximized="1"
     inkscape:current-layer="svg384" />
  <g
     id="#ffffffff">
    <path
       fill="#ffffff"
       opacity="1.00"
       d=" M 88.72 84.07 C 88.07 82.25 90.64 81.52 91.40 83.11 C 90.73 83.35 89.39 83.83 88.72 84.07 Z"
       id="path10" />
    <path
       fill="#ffffff"
       opacity="1.00"
       d=" M 109.60 160.82 C 112.01 159.61 114.69 159.21 117.36 159.37 C 117.60 159.42 118.08 159.50 118.32 159.55 C 119.26 160.05 120.22 160.54 121.20 161.01 C 117.90 163.77 113.12 162.48 109.60 160.82 M 113.06 160.25 C 113.61 160.81 113.61 160.81 113.06 160.25 Z"
       id="path30" />
    <path
       fill="#ffffff"
       opacity="1.00"
       d=" M 110.05 165.60 C 112.04 165.03 114.00 164.38 115.94 163.65 C 118.60 166.32 122.18 164.94 125.31 164.17 C 124.78 166.09 122.53 165.71 121.02 166.18 C 117.33 167.08 113.78 164.79 110.05 165.60 Z"
       id="path32" />
    <path
       fill="#ffffff"
       opacity="1.00"
       d=" M 173.36 175.20 C 174.00 175.84 174.00 175.84 173.36 175.20 Z"
       id="path34" />
    <path
       fill="#ffffff"
       opacity="1.00"
       d=" M 84.27 189.32 C 85.79 188.04 89.11 188.09 89.22 190.59 C 87.55 190.23 84.66 191.81 84.27 189.32 Z"
       id="path36" />
  </g>
  <g
     id="#eae3d1ff">
    <path
       fill="#eae3d1"
       opacity="1.00"
       d=" M 78.66 5.37 C 80.53 6.18 82.03 7.81 82.17 9.92 C 82.73 14.99 81.93 20.22 83.47 25.18 L 82.88 25.46 C 82.19 25.79 80.80 26.44 80.10 26.77 C 79.67 23.84 79.57 20.89 79.62 17.94 C 79.73 13.72 78.53 9.60 78.66 5.37 Z"
       id="path39" />
    <path
       fill="#eae3d1"
       opacity="1.00"
       d=" M 121.12 32.10 C 124.49 29.31 128.82 26.78 133.33 28.22 C 129.13 29.90 124.84 31.42 121.18 34.16 C 122.30 34.66 123.44 35.13 124.58 35.61 C 123.07 35.76 121.56 35.83 120.05 35.92 C 119.81 36.92 119.31 38.92 119.06 39.92 C 120.55 39.65 122.05 39.45 123.56 39.34 C 120.01 39.96 117.34 42.24 114.93 44.76 C 114.53 45.12 113.72 45.85 113.31 46.21 C 112.93 45.60 112.55 45.00 112.18 44.40 C 112.68 44.22 113.67 43.85 114.17 43.66 C 114.18 42.97 114.21 42.28 114.26 41.58 C 117.73 39.36 117.99 34.67 121.12 32.10 Z"
       id="path41" />
    <path
       fill="#eae3d1"
       opacity="1.00"
       d=" M 101.68 40.37 C 103.11 40.46 105.57 38.36 106.32 40.48 C 106.29 41.56 106.12 42.63 105.98 43.70 L 104.42 43.26 C 104.25 44.02 103.92 45.54 103.75 46.30 C 103.68 45.71 103.56 44.53 103.50 43.94 C 102.57 42.92 101.70 41.82 101.68 40.37 M 104.22 40.95 C 104.28 44.35 107.25 39.35 104.22 40.95 Z"
       id="path43" />
    <path
       fill="#eae3d1"
       opacity="1.00"
       d=" M 92.80 43.70 C 94.16 43.50 95.51 43.20 96.85 42.89 C 96.76 43.94 96.66 44.99 96.54 46.03 C 95.28 45.27 94.03 44.51 92.80 43.70 Z"
       id="path45" />
    <path
       fill="#eae3d1"
       opacity="1.00"
       d=" M 144.15 67.44 C 145.74 68.16 146.96 67.69 147.79 66.05 C 148.89 66.93 150.01 67.79 151.15 68.62 C 144.59 68.32 139.07 72.29 132.91 73.81 C 120.13 77.98 106.47 77.84 93.33 75.71 L 93.08 74.61 C 97.31 75.22 101.56 75.79 105.83 75.90 C 107.10 75.93 108.38 75.94 109.65 75.92 C 115.16 76.10 120.67 75.61 126.05 74.40 C 130.82 73.39 135.46 71.86 140.04 70.23 C 141.66 69.80 142.77 68.52 143.91 67.38 L 144.15 67.44 Z"
       id="path47" />
    <path
       fill="#eae3d1"
       opacity="1.00"
       d=" M 90.25 88.90 C 91.29 87.72 92.34 86.55 93.34 85.33 C 93.38 86.14 93.46 87.74 93.50 88.55 C 95.04 88.57 96.58 88.60 98.12 88.63 C 96.05 89.02 93.98 89.40 91.91 89.81 C 92.80 92.25 96.22 94.14 97.67 91.15 C 97.53 92.08 97.42 93.01 97.34 93.95 C 97.30 94.42 97.21 95.37 97.17 95.84 C 95.92 95.25 94.73 94.04 93.27 94.21 C 93.51 95.25 94.19 96.10 94.68 97.02 C 94.05 97.76 93.43 98.49 92.80 99.24 C 91.59 99.33 90.38 99.43 89.17 99.52 C 89.46 99.14 90.02 98.37 90.31 97.99 C 86.76 98.07 86.03 94.60 84.57 92.16 C 84.96 91.26 85.30 90.34 85.65 89.43 C 86.39 89.43 87.14 89.42 87.88 89.42 C 88.99 90.71 90.00 92.57 91.88 92.77 C 91.84 91.32 90.89 90.14 90.25 88.90 Z"
       id="path49" />
    <path
       fill="#eae3d1"
       opacity="1.00"
       d=" M 123.40 104.35 C 123.42 104.43 123.45 104.59 123.47 104.67 L 123.42 106.22 C 126.09 105.86 128.80 105.66 131.43 106.32 C 131.81 106.16 132.58 105.82 132.96 105.65 C 135.70 104.89 138.53 105.75 141.28 106.02 C 142.92 109.83 142.48 114.11 143.91 117.99 C 143.17 117.99 141.69 117.99 140.94 117.99 C 133.43 117.07 125.80 117.80 118.30 118.55 C 117.62 117.98 116.94 117.42 116.27 116.84 C 117.57 114.12 118.72 111.32 120.28 108.72 C 121.00 107.68 121.81 106.71 122.53 105.67 C 122.75 105.34 123.19 104.68 123.40 104.35 Z"
       id="path51" />
    <path
       fill="#eae3d1"
       opacity="1.00"
       d=" M 90.78 115.02 C 91.22 114.64 92.12 113.90 92.56 113.52 C 92.32 116.23 91.88 118.91 91.42 121.59 C 90.89 121.23 89.82 120.50 89.28 120.13 C 89.77 118.42 90.27 116.72 90.78 115.02 Z"
       id="path53" />
    <path
       fill="#eae3d1"
       opacity="1.00"
       d=" M 88.02 122.22 C 87.12 119.79 85.67 114.13 89.77 114.15 C 89.44 116.88 88.89 119.60 88.02 122.22 Z"
       id="path55" />
    <path
       fill="#eae3d1"
       opacity="1.00"
       d=" M 64.88 123.27 L 66.68 122.84 C 73.27 122.78 79.86 123.09 86.44 122.64 C 88.64 122.56 90.83 122.61 93.02 122.70 C 97.55 122.91 102.09 122.99 106.62 122.79 L 107.85 122.70 L 107.60 123.90 C 99.08 125.07 90.51 123.38 81.98 124.24 C 76.29 124.05 70.35 125.20 64.88 123.27 Z"
       id="path57" />
    <path
       fill="#eae3d1"
       opacity="1.00"
       d=" M 110.85 123.51 C 111.21 123.38 111.93 123.11 112.29 122.98 L 112.90 122.89 C 126.63 122.50 140.38 123.11 154.12 122.57 C 153.84 122.95 153.30 123.70 153.03 124.08 C 144.39 124.60 135.72 124.13 127.07 124.28 C 121.66 124.10 116.15 124.90 110.85 123.51 Z"
       id="path59" />
    <path
       fill="#eae3d1"
       opacity="1.00"
       d=" M 106.45 132.43 C 107.31 131.65 107.99 130.60 109.09 130.14 C 112.42 130.30 115.13 132.44 117.46 134.63 C 114.03 135.30 110.55 135.62 107.06 135.60 C 104.44 137.67 101.43 139.32 98.08 139.76 C 100.72 138.01 102.79 135.57 104.29 132.80 C 104.83 132.70 105.91 132.52 106.45 132.43 Z"
       id="path61" />
    <path
       fill="#eae3d1"
       opacity="1.00"
       d=" M 67.76 142.70 C 68.12 143.47 68.50 144.24 68.90 144.99 C 70.31 147.64 71.91 150.18 73.80 152.51 C 75.20 154.12 76.71 155.64 78.28 157.09 C 81.01 159.62 83.93 161.94 87.09 163.92 C 90.02 165.72 92.96 167.52 96.11 168.92 L 96.83 169.22 C 99.12 170.06 101.43 170.86 103.75 171.66 C 105.79 172.32 107.80 173.34 109.97 173.47 C 112.16 173.16 114.23 172.31 116.31 171.59 C 118.21 171.06 119.75 169.79 119.55 167.62 C 122.50 166.58 125.68 166.56 128.69 165.77 C 131.73 164.51 134.27 162.36 136.92 160.46 C 138.17 159.51 139.39 158.53 140.57 157.50 C 140.97 157.14 141.37 156.78 141.76 156.41 C 145.50 152.90 148.76 148.82 150.86 144.12 L 151.36 144.42 C 150.43 147.85 147.73 151.38 145.46 154.37 C 137.11 164.19 125.19 170.21 113.08 174.02 C 108.08 175.79 103.21 172.78 98.57 171.26 C 88.08 166.77 77.71 160.50 71.23 150.84 C 69.64 148.35 68.09 145.70 67.76 142.70 Z"
       id="path63" />
    <path
       fill="#eae3d1"
       opacity="1.00"
       d=" M 93.85 145.72 C 94.01 145.69 94.34 145.63 94.50 145.60 C 96.77 146.05 99.22 146.56 100.76 148.44 C 99.76 151.76 100.96 155.00 103.33 157.37 C 102.71 156.99 101.48 156.23 100.86 155.85 C 100.37 157.21 99.86 158.55 99.36 159.91 L 97.28 159.81 C 97.43 159.07 97.73 157.60 97.88 156.87 C 97.43 157.40 96.51 158.47 96.06 159.01 C 95.90 157.96 95.58 155.86 95.42 154.81 L 95.70 153.92 C 96.39 153.87 97.79 153.77 98.48 153.72 C 98.61 152.67 98.72 151.63 98.82 150.59 L 98.77 149.85 C 99.38 146.35 95.47 146.24 93.07 146.15 C 92.65 148.81 94.56 150.22 96.48 151.52 C 96.30 152.06 95.94 153.16 95.77 153.71 C 94.93 153.38 94.10 153.04 93.27 152.71 C 93.02 153.22 92.51 154.24 92.26 154.74 C 90.78 154.19 89.30 153.64 87.83 153.05 C 87.80 152.61 87.73 151.73 87.70 151.29 C 87.67 149.59 87.86 147.88 88.48 146.28 C 90.27 146.12 92.07 146.01 93.85 145.72 M 88.91 148.25 C 87.35 151.25 92.27 148.48 88.91 148.25 Z"
       id="path65" />
    <path
       fill="#eae3d1"
       opacity="1.00"
       d=" M 130.90 160.58 C 128.30 163.02 127.63 158.25 130.78 160.00 L 130.90 160.58 Z"
       id="path67" />
  </g>
  <g
     id="#2c7c3eff">
    <path
       fill="#2c7c3e"
       opacity="1.00"
       d=" M 205.18 9.85 C 207.26 9.84 209.35 9.84 211.44 9.84 C 211.49 76.06 211.42 142.28 211.48 208.51 C 209.39 208.55 207.30 208.59 205.22 208.64 C 205.11 142.38 205.19 76.11 205.18 9.85 Z"
       id="path70"
       style="fill:#ffffff" />
    <path
       fill="#2c7c3e"
       opacity="1.00"
       d=" M 142.04 47.12 C 143.97 43.99 147.54 43.87 150.83 44.43 C 150.44 45.49 150.86 47.86 148.99 47.41 C 147.84 47.47 146.70 47.56 145.56 47.68 C 145.36 50.68 147.54 53.52 146.45 56.56 C 144.92 61.39 140.28 65.62 135.01 65.52 C 132.06 65.78 128.62 64.91 127.26 62.01 C 126.61 58.86 128.11 55.42 131.18 54.21 C 134.22 53.84 136.01 56.81 138.17 58.39 C 138.89 55.76 139.03 52.97 137.85 50.44 C 138.19 50.39 138.88 50.28 139.22 50.23 C 141.06 50.62 141.68 52.73 142.84 54.00 C 142.52 51.71 142.25 49.42 142.04 47.12 M 128.35 58.80 C 128.95 61.69 131.42 62.89 134.05 63.45 C 136.60 62.73 138.73 61.10 141.16 60.08 C 141.65 59.39 142.14 58.70 142.64 58.02 C 141.53 58.84 140.43 59.67 139.32 60.49 L 139.47 58.24 C 139.14 59.16 138.81 60.07 138.49 60.98 C 134.45 61.69 131.96 55.27 128.35 58.80 Z"
       id="path72" />
    <path
       fill="#2c7c3e"
       opacity="1.00"
       d=" M 113.54 49.64 C 115.03 50.03 116.34 50.87 117.72 51.52 C 117.42 51.95 116.83 52.81 116.54 53.24 C 116.23 53.63 115.63 54.40 115.32 54.79 C 116.67 55.31 118.03 55.83 119.34 56.44 C 119.64 56.68 120.22 57.16 120.52 57.40 C 118.62 58.52 116.78 59.74 114.99 61.02 C 117.27 60.50 119.71 59.93 121.26 58.01 C 121.38 57.81 121.64 57.41 121.76 57.21 C 123.60 56.07 125.69 55.39 127.87 55.54 C 125.81 60.26 120.89 62.80 115.87 62.69 C 117.27 63.18 118.72 63.42 120.20 63.49 C 120.32 65.85 120.61 68.35 122.79 69.76 C 119.97 71.76 116.53 71.88 113.23 71.40 C 112.26 72.70 111.32 74.02 110.25 75.24 C 109.70 75.23 108.60 75.21 108.04 75.20 C 110.70 71.86 113.90 68.84 115.74 64.94 C 115.44 63.30 114.44 61.90 113.72 60.43 C 111.80 60.46 109.87 60.48 107.95 60.51 C 108.90 59.22 109.86 57.94 110.82 56.65 C 111.87 55.18 112.92 53.67 113.48 51.93 C 111.97 51.36 110.42 50.94 108.88 50.49 C 110.43 50.19 111.98 49.89 113.54 49.64 Z"
       id="path74" />
    <path
       fill="#2c7c3e"
       opacity="1.00"
       d=" M 229.35 55.36 C 233.69 52.15 239.42 53.26 244.41 53.68 C 244.48 55.32 244.56 56.95 244.65 58.59 C 241.18 57.77 237.14 56.63 233.95 58.87 C 230.90 60.91 230.33 66.70 234.09 68.28 C 236.33 68.99 239.91 69.14 239.11 65.73 C 238.46 65.69 237.15 65.62 236.50 65.58 C 236.54 64.55 236.61 62.48 236.65 61.45 C 239.54 61.42 242.43 61.43 245.33 61.46 C 245.07 65.12 244.78 68.78 244.54 72.44 C 239.32 73.13 233.53 74.09 228.73 71.31 C 223.55 67.63 224.25 58.83 229.35 55.36 Z"
       id="path76"
       style="fill:#ffffff" />
    <path
       fill="#2c7c3e"
       opacity="1.00"
       d=" M 255.46 53.72 C 259.91 52.69 265.38 52.75 268.75 56.29 C 273.34 61.01 271.23 70.12 264.92 72.18 C 259.76 74.09 252.77 73.48 249.44 68.63 C 246.08 63.21 249.06 55.12 255.46 53.72 M 257.23 58.30 C 253.68 60.17 253.31 66.19 257.09 68.04 C 260.56 69.91 265.03 66.98 264.80 63.09 C 265.34 59.13 260.58 56.17 257.23 58.30 Z"
       id="path78"
       style="fill:#ffffff" />
    <path
       fill="#2c7c3e"
       opacity="1.00"
       d=" M 274.83 53.74 C 278.85 53.31 282.92 53.42 286.95 53.50 C 289.41 53.44 291.73 55.47 291.50 58.04 C 291.75 60.00 290.24 61.40 289.22 62.87 C 292.73 64.96 292.45 70.75 288.52 72.18 C 283.78 73.13 278.88 72.58 274.07 72.75 C 274.53 66.42 274.53 60.08 274.83 53.74 M 280.70 57.52 C 280.62 58.63 280.54 59.74 280.46 60.86 C 282.30 60.66 285.82 61.40 285.39 58.49 C 284.27 57.09 282.25 57.78 280.70 57.52 M 280.25 65.09 C 280.26 66.34 280.27 67.60 280.28 68.85 C 281.89 68.67 283.54 68.65 285.10 68.19 C 285.36 67.30 285.59 66.40 285.77 65.49 C 283.96 65.03 282.10 64.95 280.25 65.09 Z"
       id="path80"
       style="fill:#ffffff" />
    <path
       fill="#2c7c3e"
       opacity="1.00"
       d=" M 306.37 53.52 C 311.53 53.53 316.70 53.57 321.87 53.47 C 321.88 54.95 321.88 56.43 321.88 57.92 C 318.70 57.80 315.51 57.79 312.35 58.09 C 312.34 58.76 312.33 60.09 312.33 60.76 C 314.99 60.75 317.64 60.74 320.31 60.70 C 320.23 62.22 320.17 63.74 320.10 65.26 C 317.45 65.25 314.80 65.26 312.16 65.28 C 312.13 66.04 312.06 67.56 312.02 68.31 C 315.16 68.26 318.29 68.22 321.42 68.22 C 321.35 69.70 321.29 71.18 321.24 72.67 C 315.91 72.66 310.58 72.74 305.26 72.67 C 305.89 66.30 306.31 59.92 306.37 53.52 Z"
       id="path82"
       style="fill:#ffffff" />
    <path
       fill="#2c7c3e"
       opacity="1.00"
       d=" M 325.70 53.60 C 329.99 53.58 334.32 53.15 338.60 53.68 C 341.17 54.00 343.27 56.41 342.82 59.06 C 343.03 61.81 340.48 63.31 338.59 64.74 C 339.89 67.34 341.08 70.00 342.16 72.71 C 339.95 72.69 337.75 72.69 335.55 72.69 C 334.46 69.09 333.17 65.55 331.90 62.02 C 333.31 61.78 334.80 61.75 336.15 61.19 C 336.42 60.24 336.66 59.29 336.86 58.33 C 335.08 57.99 333.29 57.76 331.49 57.60 C 331.24 62.60 331.10 67.60 331.13 72.61 C 328.99 72.65 326.85 72.68 324.72 72.71 C 325.57 66.38 325.56 59.98 325.70 53.60 Z"
       id="path84"
       style="fill:#ffffff" />
    <path
       fill="#2c7c3e"
       opacity="1.00"
       d=" M 346.43 53.53 C 348.86 53.53 351.30 53.52 353.74 53.50 C 356.00 57.30 357.99 61.26 360.33 65.02 C 360.57 61.20 360.68 57.38 360.75 53.55 C 362.66 53.54 364.56 53.53 366.47 53.52 C 366.09 59.91 365.61 66.29 365.52 72.70 C 363.11 72.68 360.71 72.68 358.30 72.69 C 356.10 69.08 354.28 65.22 351.68 61.86 C 351.47 65.46 351.43 69.07 351.39 72.67 C 349.41 72.68 347.44 72.69 345.47 72.71 C 345.80 66.32 346.40 59.94 346.43 53.53 Z"
       id="path86"
       style="fill:#ffffff" />
    <path
       fill="#2c7c3e"
       opacity="1.00"
       d=" M 376.53 53.72 C 380.94 52.71 386.36 52.74 389.71 56.25 C 394.34 60.93 392.26 70.14 385.91 72.17 C 380.72 74.12 373.67 73.45 370.37 68.52 C 367.19 63.06 370.12 55.05 376.53 53.72 M 378.28 58.28 C 374.35 60.25 374.42 67.20 378.96 68.38 C 382.82 69.70 386.63 65.76 385.76 61.94 C 385.50 58.47 381.18 56.48 378.28 58.28 Z"
       id="path88"
       style="fill:#ffffff" />
    <path
       fill="#2c7c3e"
       opacity="1.00"
       d=" M 295.04 72.74 C 295.34 66.36 295.80 59.97 295.78 53.57 C 297.95 53.55 300.12 53.54 302.30 53.52 C 301.73 59.89 301.47 66.29 301.51 72.68 C 299.35 72.69 297.19 72.71 295.04 72.74 Z"
       id="path90"
       style="fill:#ffffff" />
    <path
       fill="#2c7c3e"
       opacity="1.00"
       d=" M 80.26 64.66 C 82.89 64.42 84.84 61.51 87.63 62.51 C 91.08 64.49 93.68 67.62 96.01 70.78 C 96.94 70.79 98.80 70.82 99.73 70.83 C 100.09 70.99 100.81 71.31 101.17 71.47 C 98.85 74.97 94.19 73.85 91.32 71.79 C 88.57 69.49 86.51 66.51 83.96 64.01 C 82.28 65.73 80.86 67.69 80.04 69.97 C 82.02 71.01 83.94 72.24 86.10 72.92 C 88.44 73.44 91.04 73.09 93.08 74.61 C 91.33 74.60 89.59 74.57 87.84 74.53 C 86.74 75.51 85.63 76.49 84.53 77.47 C 83.47 77.50 82.41 77.54 81.35 77.58 C 80.28 76.25 79.20 74.93 78.20 73.56 C 77.68 72.41 77.23 71.25 76.82 70.06 C 76.82 67.88 79.04 66.34 80.26 64.66 Z"
       id="path92" />
    <path
       fill="#2c7c3e"
       opacity="1.00"
       d=" M 233.26 84.38 C 235.71 84.38 238.17 84.38 240.62 84.38 C 242.90 90.81 245.23 97.22 247.70 103.58 C 245.51 103.61 243.32 103.71 241.14 103.54 C 240.16 101.94 239.87 100.04 239.30 98.29 C 236.99 98.23 234.67 98.22 232.36 98.25 C 231.51 100.05 230.66 101.85 229.79 103.64 C 227.56 103.62 225.32 103.60 223.09 103.58 C 226.45 97.17 229.96 90.83 233.26 84.38 M 236.44 89.62 C 235.72 91.00 235.02 92.39 234.32 93.78 C 235.59 93.79 236.85 93.80 238.13 93.81 C 237.62 92.39 237.07 90.99 236.44 89.62 Z"
       id="path94"
       style="fill:#ffffff" />
    <path
       fill="#2c7c3e"
       opacity="1.00"
       d=" M 250.37 84.38 C 252.45 84.38 254.54 84.39 256.63 84.39 C 256.51 88.62 255.70 92.86 256.07 97.10 C 256.23 100.23 261.38 100.26 262.15 97.41 C 262.94 93.14 262.83 88.77 263.19 84.45 C 265.34 84.42 267.49 84.39 269.65 84.37 C 269.23 89.44 269.40 94.58 268.44 99.58 C 266.86 103.66 261.73 104.08 257.97 103.90 C 254.69 103.92 250.16 102.77 249.64 98.92 C 249.45 94.06 250.29 89.23 250.37 84.38 Z"
       id="path96"
       style="fill:#ffffff" />
    <path
       fill="#2c7c3e"
       opacity="1.00"
       d=" M 271.56 84.45 C 277.60 84.31 283.64 84.41 289.67 84.38 C 289.64 85.84 289.61 87.29 289.60 88.75 C 287.67 88.73 285.74 88.67 283.82 88.83 C 282.85 93.67 283.34 98.67 282.90 103.57 C 280.77 103.59 278.64 103.59 276.52 103.60 C 276.95 98.65 277.46 93.70 277.36 88.72 C 275.40 88.76 273.44 88.78 271.49 88.82 C 271.51 87.73 271.55 85.54 271.56 84.45 Z"
       id="path98"
       style="fill:#ffffff" />
    <path
       fill="#2c7c3e"
       opacity="1.00"
       d=" M 301.01 84.06 C 304.32 83.83 307.97 84.21 310.59 86.47 C 315.73 90.60 314.44 99.95 308.47 102.69 C 304.80 104.37 300.40 104.22 296.58 103.14 C 292.10 101.60 289.72 96.46 290.93 91.97 C 291.73 87.25 296.49 84.30 301.01 84.06 M 300.13 89.01 C 296.26 90.72 295.87 97.49 300.05 99.05 C 303.86 100.93 308.22 96.96 307.40 92.98 C 307.25 89.53 303.09 87.40 300.13 89.01 Z"
       id="path100"
       style="fill:#ffffff" />
    <path
       fill="#2c7c3e"
       opacity="1.00"
       d=" M 317.49 84.39 C 319.93 84.38 322.38 84.38 324.82 84.38 C 327.04 88.25 329.05 92.23 331.47 95.97 C 331.61 92.12 331.73 88.28 331.83 84.43 C 333.73 84.40 335.63 84.38 337.53 84.36 C 337.19 90.77 336.64 97.17 336.53 103.59 C 334.14 103.60 331.75 103.60 329.37 103.61 C 327.12 100.05 325.47 96.08 322.69 92.88 C 322.48 96.44 322.47 100.00 322.40 103.56 C 320.43 103.59 318.45 103.60 316.49 103.62 C 316.93 97.22 317.46 90.81 317.49 84.39 Z"
       id="path102"
       style="fill:#ffffff" />
    <path
       fill="#2c7c3e"
       opacity="1.00"
       d=" M 347.46 84.61 C 352.14 83.44 358.05 83.65 361.30 87.73 C 365.35 92.78 362.84 101.39 356.56 103.26 C 351.60 104.52 345.22 104.42 341.83 99.98 C 337.97 94.66 340.91 86.07 347.46 84.61 M 349.21 89.24 C 345.75 91.13 345.37 97.13 349.15 98.88 C 352.54 100.88 357.13 97.82 356.83 93.96 C 357.41 89.98 352.51 86.96 349.21 89.24 Z"
       id="path104"
       style="fill:#ffffff" />
    <path
       fill="#2c7c3e"
       opacity="1.00"
       d=" M 367.31 84.35 C 369.96 84.37 372.61 84.39 375.26 84.46 C 376.02 88.00 376.91 91.52 377.72 95.05 C 379.12 91.53 380.42 87.96 381.67 84.39 C 384.33 84.38 386.98 84.38 389.64 84.38 C 389.37 90.77 389.19 97.18 389.16 103.58 C 387.34 103.59 385.54 103.59 383.73 103.60 C 383.97 99.46 384.20 95.32 384.31 91.18 C 382.67 95.28 381.35 99.49 379.82 103.63 C 378.05 103.61 376.28 103.61 374.52 103.60 C 373.60 99.67 372.84 95.70 371.54 91.87 C 371.27 95.77 371.14 99.67 370.85 103.56 C 369.10 103.58 367.37 103.59 365.63 103.60 C 366.42 97.20 366.66 90.76 367.31 84.35 Z"
       id="path106"
       style="fill:#ffffff" />
    <path
       fill="#2c7c3e"
       opacity="1.00"
       d=" M 401.15 84.28 C 405.20 83.56 409.91 83.98 412.98 87.01 C 417.47 91.50 415.84 100.29 409.96 102.78 C 405.57 104.58 400.09 104.57 396.05 101.89 C 392.17 99.24 391.52 93.63 393.50 89.62 C 394.92 86.65 398.04 84.93 401.15 84.28 M 401.32 89.36 C 398.15 91.32 397.73 96.81 401.15 98.72 C 404.20 100.75 408.57 98.58 409.04 95.03 C 410.51 90.68 405.02 86.55 401.32 89.36 Z"
       id="path108"
       style="fill:#ffffff" />
    <path
       fill="#2c7c3e"
       opacity="1.00"
       d=" M 313.32 117.30 C 317.17 114.43 322.26 114.42 326.77 115.33 C 326.81 116.84 326.85 118.36 326.90 119.87 C 324.13 119.66 321.01 118.77 318.51 120.44 C 315.73 122.13 314.71 126.48 317.21 128.85 C 319.80 131.31 323.64 130.06 326.74 129.63 C 326.44 131.28 326.14 132.93 325.82 134.57 C 321.79 134.74 317.37 135.46 313.74 133.25 C 307.96 130.14 308.22 120.92 313.32 117.30 Z"
       id="path110"
       style="fill:#ffffff" />
    <path
       fill="#2c7c3e"
       opacity="1.00"
       d=" M 226.76 115.36 C 229.44 115.27 232.12 115.25 234.80 115.24 C 235.70 118.87 236.61 122.49 237.40 126.13 C 238.67 122.56 240.06 119.03 241.14 115.39 C 243.88 115.26 246.62 115.25 249.36 115.28 C 248.84 121.66 248.76 128.06 248.73 134.47 C 246.96 134.46 245.19 134.45 243.43 134.45 C 243.60 130.57 243.80 126.69 243.65 122.81 C 242.05 126.66 240.97 130.71 239.37 134.56 C 237.59 134.48 235.82 134.42 234.05 134.36 C 233.26 130.52 232.40 126.70 231.52 122.89 C 230.73 126.70 230.56 130.58 230.48 134.46 C 228.76 134.46 227.04 134.46 225.32 134.46 C 225.85 128.10 226.57 121.74 226.76 115.36 Z"
       id="path112"
       style="fill:#ffffff" />
    <path
       fill="#2c7c3e"
       opacity="1.00"
       d=" M 253.39 115.25 C 255.50 115.28 257.62 115.30 259.73 115.35 C 259.56 119.56 258.59 123.78 259.10 127.98 C 259.34 131.11 264.59 131.14 265.19 128.13 C 266.00 123.90 265.92 119.55 266.28 115.26 C 268.40 115.27 270.53 115.27 272.67 115.28 C 272.21 120.51 272.38 125.82 271.34 130.97 C 269.29 134.59 264.62 134.97 260.90 134.82 C 257.69 134.75 253.45 133.66 252.68 130.03 C 252.39 125.09 253.41 120.19 253.39 115.25 Z"
       id="path114"
       style="fill:#ffffff" />
    <path
       fill="#2c7c3e"
       opacity="1.00"
       d=" M 276.35 115.26 C 278.81 115.26 281.28 115.27 283.75 115.30 C 285.99 118.88 287.37 123.05 290.32 126.13 C 290.53 122.52 290.58 118.90 290.69 115.28 C 292.60 115.28 294.51 115.28 296.43 115.28 C 295.89 121.67 295.64 128.08 295.39 134.49 C 292.96 134.47 290.53 134.44 288.10 134.39 C 286.01 130.56 283.79 126.81 281.54 123.07 C 281.46 126.86 281.35 130.65 281.29 134.44 C 279.33 134.45 277.37 134.46 275.41 134.47 C 275.75 128.07 276.30 121.67 276.35 115.26 Z"
       id="path116"
       style="fill:#ffffff" />
    <path
       fill="#2c7c3e"
       opacity="1.00"
       d=" M 300.42 115.29 C 302.56 115.28 304.69 115.27 306.83 115.26 C 306.43 121.64 306.14 128.02 306.17 134.42 C 303.95 134.44 301.75 134.45 299.54 134.47 C 299.93 128.08 300.51 121.70 300.42 115.29 Z"
       id="path118"
       style="fill:#ffffff" />
    <path
       fill="#2c7c3e"
       opacity="1.00"
       d=" M 330.71 115.32 C 332.86 115.29 335.01 115.27 337.17 115.24 C 336.58 121.64 336.50 128.06 336.30 134.47 C 334.14 134.46 331.97 134.45 329.81 134.45 C 330.36 128.09 330.66 121.71 330.71 115.32 Z"
       id="path120"
       style="fill:#ffffff" />
    <path
       fill="#2c7c3e"
       opacity="1.00"
       d=" M 341.18 115.28 C 345.30 115.50 349.51 114.76 353.58 115.59 C 357.87 117.16 357.76 123.83 354.18 126.13 C 352.31 127.50 349.90 127.32 347.71 127.43 C 347.52 126.45 347.14 124.49 346.95 123.51 C 348.25 123.05 351.13 123.13 350.62 121.00 C 350.71 118.90 347.95 119.80 346.66 119.48 C 346.50 124.46 346.23 129.44 346.18 134.43 C 344.22 134.45 342.27 134.46 340.33 134.48 C 340.65 128.08 341.14 121.69 341.18 115.28 Z"
       id="path122"
       style="fill:#ffffff" />
    <path
       fill="#2c7c3e"
       opacity="1.00"
       d=" M 366.68 115.31 C 369.14 115.47 371.94 114.70 374.19 115.68 C 376.61 121.86 378.77 128.16 381.09 134.38 C 378.88 134.28 376.46 134.92 374.39 134.10 C 373.78 132.50 373.31 130.85 372.84 129.21 C 370.55 129.15 368.27 129.12 365.99 129.10 C 365.08 130.91 364.18 132.71 363.27 134.52 C 361.07 134.47 358.88 134.43 356.69 134.39 C 359.93 127.98 363.53 121.76 366.68 115.31 M 367.88 124.66 C 369.13 124.65 370.39 124.64 371.65 124.62 C 371.21 123.32 370.75 122.02 370.31 120.73 C 369.26 121.88 368.54 123.27 367.88 124.66 Z"
       id="path124"
       style="fill:#ffffff" />
    <path
       fill="#2c7c3e"
       opacity="1.00"
       d=" M 383.99 115.27 C 386.16 115.27 388.32 115.28 390.49 115.31 C 390.15 120.14 389.78 124.96 389.56 129.79 C 392.45 130.14 395.36 130.20 398.27 130.12 C 398.11 131.59 397.93 133.05 397.76 134.52 C 392.88 134.42 388.01 134.43 383.13 134.51 C 383.35 128.09 383.87 121.69 383.99 115.27 Z"
       id="path126"
       style="fill:#ffffff" />
    <path
       fill="#2c7c3e"
       opacity="1.00"
       d=" M 409.17 115.29 C 413.83 115.53 418.59 114.66 423.18 115.71 C 431.30 118.64 429.50 132.98 421.03 134.18 C 416.82 134.73 412.56 134.35 408.33 134.47 C 408.66 128.08 409.03 121.69 409.17 115.29 M 415.10 119.53 C 414.82 123.11 414.67 126.70 414.60 130.29 C 416.22 130.06 417.94 130.13 419.49 129.50 C 422.26 127.90 422.36 124.05 421.40 121.36 C 420.18 119.10 417.24 119.61 415.10 119.53 Z"
       id="path128"
       style="fill:#ffffff" />
    <path
       fill="#2c7c3e"
       opacity="1.00"
       d=" M 432.18 115.23 C 437.38 115.29 442.57 115.26 447.77 115.26 C 447.72 116.73 447.67 118.20 447.63 119.67 C 444.54 119.68 441.45 119.52 438.38 119.82 C 438.26 120.49 438.03 121.82 437.91 122.48 C 440.56 122.58 443.21 122.55 445.86 122.44 C 445.84 123.92 445.82 125.39 445.81 126.87 C 443.08 126.99 440.36 127.09 437.64 127.25 C 437.60 127.90 437.52 129.20 437.48 129.85 C 440.67 130.03 443.86 129.97 447.05 129.77 C 446.98 131.32 446.92 132.88 446.88 134.43 C 441.62 134.48 436.37 134.44 431.12 134.47 C 431.60 128.06 431.81 121.64 432.18 115.23 Z"
       id="path130"
       style="fill:#ffffff" />
    <path
       fill="#2c7c3e"
       opacity="1.00"
       d=" M 224.78 146.29 C 230.83 146.15 236.88 146.29 242.93 146.19 C 242.87 147.66 242.80 149.14 242.75 150.62 C 240.76 150.57 238.78 150.54 236.80 150.51 C 236.50 155.44 236.29 160.39 236.21 165.33 C 234.13 165.34 232.06 165.34 229.99 165.34 C 230.25 160.40 230.59 155.46 230.62 150.51 C 228.64 150.54 226.67 150.58 224.70 150.60 C 224.73 149.16 224.75 147.72 224.78 146.29 Z"
       id="path132"
       style="fill:#ffffff" />
    <path
       fill="#2c7c3e"
       opacity="1.00"
       d=" M 245.40 146.24 C 247.54 146.23 249.69 146.22 251.84 146.19 C 251.24 152.55 251.37 158.95 250.91 165.33 C 248.76 165.33 246.62 165.34 244.48 165.34 C 244.89 158.98 245.50 152.63 245.40 146.24 Z"
       id="path134"
       style="fill:#ffffff" />
    <path
       fill="#2c7c3e"
       opacity="1.00"
       d=" M 258.77 147.78 C 264.12 144.51 272.65 144.79 276.27 150.49 C 278.46 153.76 277.52 157.97 275.21 160.89 C 275.96 160.80 277.44 160.60 278.19 160.50 C 277.86 162.05 277.56 163.60 277.25 165.14 C 271.22 165.31 264.61 167.02 258.99 164.14 C 252.84 161.05 253.01 151.18 258.77 147.78 M 264.49 150.53 C 260.35 151.60 259.00 157.98 262.74 160.32 C 265.69 162.53 270.35 160.59 271.03 157.02 C 272.39 153.18 268.37 149.02 264.49 150.53 Z"
       id="path136"
       style="fill:#ffffff" />
    <path
       fill="#2c7c3e"
       opacity="1.00"
       d=" M 281.51 146.26 C 283.63 146.24 285.74 146.22 287.86 146.20 C 287.63 150.45 286.95 154.71 287.29 158.98 C 287.69 161.89 292.46 162.08 293.30 159.27 C 294.18 154.98 294.13 150.55 294.39 146.19 C 296.54 146.18 298.68 146.17 300.83 146.16 C 300.30 151.32 300.71 156.59 299.55 161.66 C 297.69 165.48 292.72 165.89 288.98 165.71 C 285.76 165.68 281.62 164.42 280.81 160.87 C 280.57 155.99 281.61 151.15 281.51 146.26 Z"
       id="path138"
       style="fill:#ffffff" />
    <path
       fill="#2c7c3e"
       opacity="1.00"
       d=" M 304.49 146.23 C 306.64 146.23 308.78 146.22 310.94 146.20 C 310.47 152.56 310.26 158.94 310.18 165.31 C 307.99 165.32 305.80 165.33 303.62 165.33 C 304.12 158.98 304.57 152.61 304.49 146.23 Z"
       id="path140"
       style="fill:#ffffff" />
    <path
       fill="#2c7c3e"
       opacity="1.00"
       d=" M 314.81 146.32 C 318.87 146.28 322.96 145.87 327.01 146.37 C 330.87 147.32 331.61 152.61 329.51 155.50 C 327.87 157.98 324.59 158.54 321.85 158.18 C 321.23 157.03 321.02 155.72 320.65 154.49 C 321.95 153.85 324.73 154.07 324.51 151.96 C 324.58 149.84 321.83 150.67 320.49 150.32 C 320.33 155.31 320.12 160.30 320.01 165.29 C 318.07 165.32 316.14 165.35 314.21 165.38 C 314.45 159.03 314.98 152.68 314.81 146.32 Z"
       id="path142"
       style="fill:#ffffff" />
    <path
       fill="#2c7c3e"
       opacity="1.00"
       d=" M 340.43 146.24 C 342.94 146.23 345.44 146.22 347.95 146.19 C 350.17 152.61 352.72 158.92 354.86 165.36 C 352.64 165.35 350.43 165.33 348.22 165.29 C 347.67 163.42 347.04 161.57 346.35 159.75 C 344.12 159.99 341.61 159.34 339.57 160.44 C 338.63 162.00 337.94 163.70 337.19 165.36 C 334.93 165.34 332.67 165.32 330.42 165.29 C 333.77 158.94 337.31 152.70 340.43 146.24 M 343.79 151.06 C 343.15 152.54 342.52 154.04 341.93 155.55 C 342.71 155.57 344.26 155.60 345.04 155.62 C 344.73 154.07 344.36 152.53 343.79 151.06 Z"
       id="path144"
       style="fill:#ffffff" />
    <path
       fill="#2c7c3e"
       opacity="1.00"
       d=" M 354.97 146.24 C 357.27 146.23 359.58 146.23 361.89 146.23 C 362.71 148.13 363.50 150.06 364.49 151.89 C 366.61 150.87 367.14 148.09 368.44 146.27 C 370.70 146.23 372.97 146.22 375.24 146.22 C 373.28 149.85 370.75 153.12 368.51 156.58 C 366.72 159.12 367.56 162.43 367.25 165.34 C 365.17 165.33 363.09 165.33 361.02 165.33 C 361.13 162.85 361.43 160.37 361.32 157.89 C 359.55 153.83 356.99 150.17 354.97 146.24 Z"
       id="path146"
       style="fill:#ffffff" />
    <path
       fill="#2c7c3e"
       opacity="1.00"
       d=" M 383.40 146.26 C 385.91 146.23 388.43 146.22 390.95 146.19 C 393.16 152.61 395.64 158.93 397.89 165.34 C 395.70 165.11 393.20 165.90 391.20 164.92 C 390.50 163.36 390.09 161.69 389.60 160.07 C 387.23 159.76 384.84 159.79 382.49 160.17 C 381.74 161.90 380.97 163.63 380.20 165.36 C 377.93 165.34 375.67 165.32 373.40 165.30 C 376.72 158.94 380.29 152.72 383.40 146.26 M 386.80 150.99 C 386.15 152.51 385.53 154.04 384.94 155.58 C 385.72 155.58 387.30 155.59 388.08 155.60 C 387.72 154.04 387.33 152.49 386.80 150.99 Z"
       id="path148"
       style="fill:#ffffff" />
  </g>
  <g
     id="#8f5e22ff">
    <path
       fill="#8f5e22"
       opacity="1.00"
       d=" M 83.35 15.33 C 86.08 15.00 87.59 17.59 89.45 19.09 C 88.99 19.46 88.05 20.20 87.59 20.57 C 86.51 20.34 85.44 20.10 84.37 19.87 C 84.03 18.36 83.69 16.85 83.35 15.33 Z"
       id="path151" />
    <path
       fill="#8f5e22"
       opacity="1.00"
       d=" M 89.45 19.09 C 89.52 19.13 89.64 19.23 89.71 19.28 C 89.64 19.23 89.52 19.13 89.45 19.09 Z"
       id="path153" />
    <path
       fill="#8f5e22"
       opacity="1.00"
       d=" M 84.55 20.55 C 86.12 22.27 90.52 24.16 88.90 26.96 C 87.21 25.00 85.64 22.92 84.55 20.55 Z"
       id="path155" />
    <path
       fill="#8f5e22"
       opacity="1.00"
       d=" M 133.33 28.22 L 134.11 27.89 C 138.81 27.32 143.56 27.13 148.30 27.29 C 149.34 31.80 143.79 32.00 140.85 33.24 C 138.67 33.27 138.48 35.36 138.09 37.02 C 137.32 37.12 135.77 37.32 134.99 37.42 C 133.38 39.02 131.77 40.61 130.17 42.22 C 130.66 43.07 132.03 43.69 131.72 44.82 C 130.85 45.17 129.96 45.49 129.07 45.78 C 128.79 46.52 128.22 47.99 127.94 48.73 C 127.33 47.19 125.76 45.48 127.53 44.03 C 125.52 43.59 123.46 43.46 121.41 43.66 C 121.52 45.03 121.64 46.40 121.76 47.77 C 120.43 47.59 119.09 47.42 117.77 47.24 C 117.96 48.23 118.17 49.22 118.33 50.22 C 118.17 50.55 117.87 51.20 117.72 51.52 C 117.36 49.06 116.53 46.70 114.93 44.76 C 117.34 42.24 120.01 39.96 123.56 39.34 C 122.05 39.45 120.55 39.65 119.06 39.92 C 119.31 38.92 119.81 36.92 120.05 35.92 C 121.56 35.83 123.07 35.76 124.58 35.61 C 123.44 35.13 122.30 34.66 121.18 34.16 C 124.84 31.42 129.13 29.90 133.33 28.22 M 135.36 30.11 C 135.30 30.79 135.18 32.13 135.12 32.80 C 134.53 33.10 133.35 33.72 132.76 34.02 C 134.12 34.17 135.50 34.30 136.87 34.43 C 136.81 33.93 136.68 32.95 136.62 32.46 C 136.94 32.12 137.59 31.45 137.91 31.11 C 137.06 30.78 136.21 30.45 135.36 30.11 Z"
       id="path157" />
    <path
       fill="#8f5e22"
       opacity="1.00"
       d=" M 124.29 50.24 C 124.78 50.75 124.78 50.75 124.29 50.24 Z"
       id="path159" />
    <path
       fill="#8f5e22"
       opacity="1.00"
       d=" M 128.19 85.52 C 129.56 85.32 130.90 84.99 132.22 84.59 C 133.77 85.29 135.30 86.03 136.82 86.79 C 135.31 88.40 134.64 90.80 132.88 92.11 C 130.60 92.30 128.03 90.32 126.02 92.07 C 124.72 93.15 125.76 94.75 125.96 96.07 C 126.07 96.50 126.29 97.36 126.40 97.79 C 128.08 97.59 129.76 97.40 131.45 97.22 C 131.34 98.86 131.37 100.50 131.42 102.15 C 133.68 97.69 132.93 92.02 136.59 88.27 L 138.14 88.71 C 137.67 90.17 138.16 91.03 139.60 91.31 L 140.50 91.48 L 140.12 92.19 C 139.38 93.42 139.01 94.76 139.02 96.22 C 138.62 96.55 137.82 97.22 137.42 97.55 C 137.25 98.56 137.08 99.56 136.91 100.57 C 136.23 100.69 134.86 100.92 134.17 101.04 C 134.05 101.71 133.81 103.05 133.68 103.72 C 132.70 103.73 131.73 103.63 130.76 103.43 C 130.35 103.72 129.54 104.29 129.13 104.58 C 127.24 104.57 125.35 104.56 123.47 104.67 C 123.45 104.59 123.42 104.43 123.40 104.35 C 121.36 102.59 119.63 100.56 118.26 98.24 L 118.05 97.94 C 118.96 92.39 122.08 86.45 128.19 85.52 Z"
       id="path161" />
    <path
       fill="#8f5e22"
       opacity="1.00"
       d=" M 93.27 94.21 C 94.73 94.04 95.92 95.25 97.17 95.84 C 97.21 95.37 97.30 94.42 97.34 93.95 C 97.30 94.93 97.29 95.92 97.27 96.90 C 96.82 97.18 95.93 97.74 95.49 98.02 C 95.39 102.18 97.07 106.19 97.60 110.31 C 96.93 110.38 95.58 110.52 94.90 110.59 C 94.13 111.58 93.37 112.57 92.56 113.52 C 92.12 113.90 91.22 114.64 90.78 115.02 C 90.27 116.72 89.77 118.42 89.28 120.13 C 89.82 120.50 90.89 121.23 91.42 121.59 C 91.82 121.87 92.62 122.42 93.02 122.70 C 90.83 122.61 88.64 122.56 86.44 122.64 C 86.64 118.90 87.05 115.16 87.71 111.47 C 85.22 110.74 82.73 110.04 80.23 109.36 C 80.50 107.98 80.74 106.58 81.10 105.22 C 81.23 106.34 81.37 107.47 81.51 108.60 C 86.11 109.87 90.93 110.74 95.66 109.55 C 95.79 105.88 95.13 102.19 92.80 99.24 C 93.43 98.49 94.05 97.76 94.68 97.02 C 94.19 96.10 93.51 95.25 93.27 94.21 M 88.02 122.22 C 88.89 119.60 89.44 116.88 89.77 114.15 C 85.67 114.13 87.12 119.79 88.02 122.22 Z"
       id="path163" />
    <path
       fill="#8f5e22"
       opacity="1.00"
       d=" M 60.56 124.93 C 60.49 124.09 60.83 123.46 61.58 123.06 C 61.23 133.05 63.50 143.38 69.39 151.60 C 77.12 162.53 88.95 169.94 101.35 174.52 C 104.84 175.77 108.59 177.43 112.34 176.32 C 124.14 172.86 135.51 167.11 144.26 158.34 C 153.49 149.36 158.68 136.19 157.46 123.31 C 157.74 123.33 158.30 123.36 158.58 123.37 C 158.66 128.24 159.11 133.27 157.52 137.97 C 155.77 143.60 153.70 149.27 150.07 154.00 C 149.15 155.22 148.23 156.45 147.27 157.64 C 143.25 162.40 137.90 165.73 132.85 169.26 C 132.52 169.78 132.22 170.32 131.93 170.87 C 131.56 170.69 130.80 170.33 130.42 170.15 C 123.76 173.98 116.74 177.75 108.94 178.43 C 102.85 177.80 97.36 174.79 91.97 172.09 C 90.59 171.34 89.02 171.13 87.48 171.03 C 86.50 171.26 85.54 171.52 84.59 171.84 C 84.60 171.34 84.63 170.34 84.65 169.84 C 84.53 169.35 84.39 168.87 84.24 168.40 C 82.29 165.50 78.98 163.89 76.49 161.51 C 65.92 152.58 60.09 138.69 60.56 124.93 Z"
       id="path165" />
    <path
       fill="#8f5e22"
       opacity="1.00"
       d=" M 66.25 137.42 C 63.89 134.32 64.31 130.21 64.55 126.56 C 93.36 126.67 122.18 126.62 150.99 126.59 C 152.50 126.69 154.38 126.24 155.28 127.83 C 155.56 130.17 155.18 132.59 153.71 134.49 C 153.72 132.42 153.70 130.36 153.69 128.29 C 128.44 128.26 103.19 128.31 77.95 128.28 C 73.75 128.22 69.56 128.25 65.37 128.52 C 65.65 131.49 65.92 134.46 66.25 137.42 Z"
       id="path167" />
    <path
       fill="#8f5e22"
       opacity="1.00"
       d=" M 47.03 134.53 C 48.73 135.89 50.54 137.10 52.26 138.43 C 54.10 140.87 55.14 143.81 56.54 146.51 L 55.64 145.79 C 54.64 144.80 53.62 143.83 52.58 142.90 C 52.59 143.59 52.61 144.99 52.62 145.68 C 51.47 145.55 50.32 145.42 49.16 145.29 C 49.66 146.68 50.17 148.07 50.60 149.48 C 50.61 149.63 50.63 149.92 50.64 150.07 C 50.65 150.71 50.65 152.00 50.66 152.65 C 48.05 151.97 45.23 154.54 43.24 151.96 C 43.44 149.53 43.15 147.05 43.64 144.65 C 45.36 141.59 48.65 139.77 52.20 140.22 C 50.66 138.64 48.87 137.26 47.61 135.43 L 47.03 134.53 Z"
       id="path169" />
  </g>
  <g
     id="#e2d73fff">
    <path
       fill="#e2d73f"
       opacity="1.00"
       d=" M 87.59 20.57 C 88.05 20.20 88.99 19.46 89.45 19.09 C 89.52 19.13 89.64 19.23 89.71 19.28 C 91.30 20.50 92.98 21.76 93.96 23.57 C 95.95 27.41 98.26 31.61 96.76 36.04 C 96.95 36.25 97.33 36.68 97.52 36.89 C 97.58 34.16 97.71 31.43 97.75 28.69 C 99.30 31.73 98.38 35.23 98.70 38.49 C 101.34 37.06 102.45 32.95 105.98 33.47 C 108.97 33.98 111.95 34.86 114.66 36.26 C 113.55 37.29 114.03 38.66 114.47 39.88 C 114.42 40.31 114.32 41.16 114.26 41.58 C 114.21 42.28 114.18 42.97 114.17 43.66 C 114.13 41.28 113.24 39.03 111.86 37.12 L 112.82 37.00 C 111.60 36.13 110.26 35.47 108.82 36.32 C 108.25 36.03 107.12 35.44 106.55 35.15 C 106.54 35.76 106.53 36.99 106.52 37.61 C 104.19 37.98 101.87 38.35 99.53 38.65 C 99.64 39.51 99.85 41.23 99.96 42.09 C 98.92 42.36 97.89 42.64 96.85 42.89 C 95.51 43.20 94.16 43.50 92.80 43.70 C 92.00 43.16 91.23 42.59 90.48 41.99 C 91.39 41.94 93.22 41.84 94.14 41.79 C 93.72 41.53 92.89 41.00 92.47 40.73 C 91.73 39.06 90.96 37.40 90.12 35.78 C 89.24 34.19 88.54 32.51 88.07 30.76 C 86.18 27.38 83.58 24.01 84.37 19.87 C 85.44 20.10 86.51 20.34 87.59 20.57 M 84.55 20.55 C 85.64 22.92 87.21 25.00 88.90 26.96 C 90.52 24.16 86.12 22.27 84.55 20.55 Z"
       id="path172" />
    <path
       fill="#e2d73f"
       opacity="1.00"
       d=" M 47.06 21.82 C 49.49 24.06 52.13 26.13 54.07 28.83 C 54.70 30.98 54.66 33.26 54.91 35.47 C 55.60 35.44 56.99 35.39 57.69 35.36 C 57.73 36.04 57.82 37.41 57.87 38.09 C 57.71 37.64 57.38 36.74 57.21 36.29 C 55.94 36.17 54.67 36.13 53.40 36.14 L 53.22 36.14 C 53.49 35.45 53.77 34.76 54.05 34.06 C 49.20 31.84 48.24 26.47 47.06 21.82 Z"
       id="path174" />
    <path
       fill="#e2d73f"
       opacity="1.00"
       d=" M 164.98 29.00 C 166.77 27.16 168.44 25.20 170.03 23.18 L 169.82 23.90 C 170.00 24.39 170.35 25.38 170.52 25.87 C 171.06 29.66 167.72 31.79 165.17 33.84 C 165.85 35.78 165.47 37.64 163.61 38.75 L 162.20 37.73 C 160.55 39.38 159.33 41.36 158.20 43.37 C 163.88 45.19 169.02 48.33 174.74 50.06 C 177.42 51.02 180.33 51.60 182.67 53.29 C 183.87 54.63 183.89 56.61 184.51 58.24 C 182.77 60.07 181.05 61.93 179.31 63.76 C 179.65 60.85 179.57 57.09 176.52 55.63 C 170.06 52.32 162.30 51.47 156.87 46.27 C 156.01 47.41 155.21 48.58 154.46 49.79 C 154.76 50.30 155.36 51.33 155.67 51.84 C 153.37 56.75 150.36 61.29 147.79 66.05 C 146.96 67.69 145.74 68.16 144.15 67.44 C 148.14 60.37 152.29 53.38 156.30 46.31 C 158.21 42.82 160.74 39.53 161.30 35.47 C 162.04 35.43 163.50 35.35 164.23 35.31 C 164.43 33.20 164.66 31.10 164.98 29.00 Z"
       id="path176" />
    <path
       fill="#e2d73f"
       opacity="1.00"
       d=" M 58.80 43.76 C 59.63 45.22 60.40 46.71 61.19 48.19 C 55.19 51.08 48.71 52.84 42.72 55.72 C 39.83 57.01 39.97 60.55 39.53 63.19 C 38.12 61.78 36.76 60.32 35.42 58.85 C 35.50 56.44 35.31 53.16 38.21 52.33 C 45.17 49.73 52.39 47.65 58.80 43.76 Z"
       id="path178" />
    <path
       fill="#e2d73f"
       opacity="1.00"
       d=" M 85.37 49.18 C 86.95 49.70 88.59 50.14 90.08 50.90 C 90.42 51.99 90.70 53.09 90.92 54.21 C 90.88 54.33 90.78 54.58 90.74 54.71 C 91.28 55.19 92.38 56.17 92.92 56.65 C 94.34 56.29 95.77 55.99 97.21 55.77 L 97.71 55.97 C 97.82 56.31 98.06 56.99 98.17 57.33 C 99.79 57.34 101.42 57.33 103.04 57.32 C 103.41 56.79 104.14 55.72 104.51 55.18 C 105.86 55.33 107.22 55.45 108.56 55.67 C 104.74 56.85 101.40 59.30 97.91 61.21 C 97.26 61.72 96.63 62.26 96.03 62.82 C 91.08 59.82 85.70 55.43 85.37 49.18 Z"
       id="path180" />
    <path
       fill="#e2d73f"
       opacity="1.00"
       d=" M 167.03 67.55 C 169.03 65.15 171.10 62.81 173.27 60.57 C 173.85 62.02 174.33 63.50 174.83 64.98 C 172.19 65.70 169.50 66.35 167.03 67.55 Z"
       id="path182" />
    <path
       fill="#e2d73f"
       opacity="1.00"
       d=" M 68.35 68.50 C 71.17 68.42 74.13 68.41 76.38 70.39 C 75.36 71.14 74.32 71.87 73.29 72.60 C 74.38 85.47 76.09 98.93 71.36 111.33 C 69.96 115.71 66.66 119.08 64.88 123.27 C 70.35 125.20 76.29 124.05 81.98 124.24 C 90.51 123.38 99.08 125.07 107.60 123.90 L 107.85 122.70 C 108.83 113.50 108.02 104.21 108.26 94.97 C 108.17 89.55 108.77 84.07 107.55 78.73 C 102.96 78.84 98.38 78.31 93.91 77.29 C 93.94 77.75 94.00 78.67 94.03 79.13 C 93.80 77.99 93.56 76.85 93.33 75.71 C 106.47 77.84 120.13 77.98 132.91 73.81 C 139.07 72.29 144.59 68.32 151.15 68.62 C 149.93 74.35 147.88 80.00 148.10 85.94 C 148.32 92.81 147.38 99.90 149.65 106.53 C 150.73 110.07 152.84 113.21 153.75 116.81 C 154.42 119.26 156.20 121.16 157.46 123.31 C 158.68 136.19 153.49 149.36 144.26 158.34 C 135.51 167.11 124.14 172.86 112.34 176.32 C 108.59 177.43 104.84 175.77 101.35 174.52 C 88.95 169.94 77.12 162.53 69.39 151.60 C 63.50 143.38 61.23 133.05 61.58 123.06 C 64.47 120.73 65.71 117.17 66.87 113.79 C 70.24 105.68 72.49 96.84 71.58 88.01 C 70.86 81.45 69.83 74.93 68.35 68.50 M 111.38 79.35 C 111.46 92.22 111.45 105.08 111.38 117.95 C 111.48 119.44 111.05 121.20 112.29 122.37 L 112.29 122.98 C 111.93 123.11 111.21 123.38 110.85 123.51 C 116.15 124.90 121.66 124.10 127.07 124.28 C 135.72 124.13 144.39 124.60 153.03 124.08 C 153.30 123.70 153.84 122.95 154.12 122.57 L 154.62 122.55 C 145.31 112.14 143.89 97.31 144.69 83.96 C 145.34 79.80 146.03 75.59 145.47 71.37 C 134.45 75.33 123.11 78.57 111.38 79.35 M 66.25 137.42 C 66.48 139.25 67.04 141.02 67.76 142.70 C 68.09 145.70 69.64 148.35 71.23 150.84 C 77.71 160.50 88.08 166.77 98.57 171.26 C 103.21 172.78 108.08 175.79 113.08 174.02 C 125.19 170.21 137.11 164.19 145.46 154.37 C 147.73 151.38 150.43 147.85 151.36 144.42 L 151.48 142.47 C 152.36 139.85 153.56 137.28 153.71 134.49 C 155.18 132.59 155.56 130.17 155.28 127.83 C 154.38 126.24 152.50 126.69 150.99 126.59 C 122.18 126.62 93.36 126.67 64.55 126.56 C 64.31 130.21 63.89 134.32 66.25 137.42 Z"
       id="path184" />
    <path
       fill="#e2d73f"
       opacity="1.00"
       d=" M 53.94 71.78 C 54.54 71.71 55.74 71.55 56.34 71.47 C 61.41 78.77 60.82 88.87 56.32 96.29 C 52.84 102.57 47.09 106.98 41.98 111.82 C 41.97 112.09 41.94 112.63 41.92 112.90 C 40.63 111.16 38.93 109.81 37.07 108.72 C 44.24 103.40 51.41 97.06 54.36 88.36 C 56.32 82.96 55.43 77.16 53.94 71.78 Z"
       id="path186" />
    <path
       fill="#e2d73f"
       opacity="1.00"
       d=" M 162.83 71.56 C 163.48 71.60 164.76 71.67 165.40 71.71 C 163.91 77.05 163.01 82.81 164.88 88.18 C 167.83 96.97 175.06 103.36 182.27 108.74 C 180.33 109.54 178.20 111.61 176.05 110.26 C 170.59 106.32 165.81 101.28 162.50 95.41 C 158.34 88.17 158.13 78.60 162.83 71.56 Z"
       id="path188" />
    <path
       fill="#e2d73f"
       opacity="1.00"
       d=" M 87.35 151.34 L 87.70 151.29 C 87.73 151.73 87.80 152.61 87.83 153.05 C 89.30 153.64 90.78 154.19 92.26 154.74 C 92.51 154.24 93.02 153.22 93.27 152.71 C 94.10 153.04 94.93 153.38 95.77 153.71 L 95.70 153.92 L 95.42 154.81 C 94.73 154.98 93.35 155.34 92.66 155.52 C 92.50 157.45 92.37 159.38 92.26 161.32 C 91.78 159.26 91.36 157.18 90.99 155.10 C 89.93 155.28 88.88 155.46 87.83 155.64 C 87.86 156.18 87.91 157.28 87.94 157.83 L 87.25 158.11 C 87.27 155.85 87.31 153.59 87.35 151.34 Z"
       id="path190" />
  </g>
  <g
     id="#5b3f3cff">
    <path
       fill="#5b3f3c"
       opacity="1.00"
       d=" M 93.96 23.57 C 95.46 25.06 97.12 26.60 97.75 28.69 C 97.71 31.43 97.58 34.16 97.52 36.89 C 97.33 36.68 96.95 36.25 96.76 36.04 C 98.26 31.61 95.95 27.41 93.96 23.57 Z"
       id="path193" />
    <path
       fill="#5b3f3c"
       opacity="1.00"
       d=" M 80.10 26.77 C 80.80 26.44 82.19 25.79 82.88 25.46 C 83.82 26.65 84.80 27.81 85.79 28.96 C 85.09 32.21 86.72 35.25 89.55 36.84 L 90.12 35.78 C 90.96 37.40 91.73 39.06 92.47 40.73 C 92.89 41.00 93.72 41.53 94.14 41.79 C 93.22 41.84 91.39 41.94 90.48 41.99 C 91.23 42.59 92.00 43.16 92.80 43.70 C 94.03 44.51 95.28 45.27 96.54 46.03 C 96.41 46.75 96.15 48.17 96.02 48.88 L 95.38 49.94 C 92.94 46.68 89.40 44.61 86.41 41.96 C 83.79 37.17 80.54 32.37 80.10 26.77 Z"
       id="path195" />
    <path
       fill="#5b3f3c"
       opacity="1.00"
       d=" M 106.55 35.15 C 107.12 35.44 108.25 36.03 108.82 36.32 C 110.26 35.47 111.60 36.13 112.82 37.00 L 111.86 37.12 C 113.24 39.03 114.13 41.28 114.17 43.66 C 113.67 43.85 112.68 44.22 112.18 44.40 C 112.55 45.00 112.93 45.60 113.31 46.21 C 113.72 45.85 114.53 45.12 114.93 44.76 C 116.53 46.70 117.36 49.06 117.72 51.52 C 116.34 50.87 115.03 50.03 113.54 49.64 C 110.00 48.86 106.36 49.25 102.92 50.29 C 102.34 48.60 101.74 46.92 101.10 45.25 C 100.71 44.20 100.31 43.16 99.96 42.09 C 99.85 41.23 99.64 39.51 99.53 38.65 C 101.87 38.35 104.19 37.98 106.52 37.61 C 106.53 36.99 106.54 35.76 106.55 35.15 M 101.68 40.37 C 101.70 41.82 102.57 42.92 103.50 43.94 C 103.56 44.53 103.68 45.71 103.75 46.30 C 103.92 45.54 104.25 44.02 104.42 43.26 L 105.98 43.70 C 106.12 42.63 106.29 41.56 106.32 40.48 C 105.57 38.36 103.11 40.46 101.68 40.37 Z"
       id="path197" />
    <path
       fill="#5b3f3c"
       opacity="1.00"
       d=" M 104.22 40.95 C 107.25 39.35 104.28 44.35 104.22 40.95 Z"
       id="path199" />
    <path
       fill="#5b3f3c"
       opacity="1.00"
       d=" M 121.41 43.66 C 123.46 43.46 125.52 43.59 127.53 44.03 C 125.76 45.48 127.33 47.19 127.94 48.73 C 128.04 49.22 128.24 50.20 128.34 50.69 C 125.35 51.92 122.68 53.98 121.76 57.21 C 121.64 57.41 121.38 57.81 121.26 58.01 L 120.52 57.40 C 120.22 57.16 119.64 56.68 119.34 56.44 C 119.77 55.83 120.61 54.61 121.04 54.00 C 119.54 53.75 118.04 53.49 116.54 53.24 C 116.83 52.81 117.42 51.95 117.72 51.52 C 117.87 51.20 118.17 50.55 118.33 50.22 C 118.17 49.22 117.96 48.23 117.77 47.24 C 119.09 47.42 120.43 47.59 121.76 47.77 C 121.64 46.40 121.52 45.03 121.41 43.66 M 124.29 50.24 C 124.78 50.75 124.78 50.75 124.29 50.24 Z"
       id="path201" />
    <path
       fill="#5b3f3c"
       opacity="1.00"
       d=" M 97.57 53.69 C 97.07 50.35 98.37 47.22 101.10 45.25 C 100.31 48.21 99.26 51.12 97.57 53.69 Z"
       id="path203" />
    <path
       fill="#5b3f3c"
       opacity="1.00"
       d=" M 97.71 55.97 C 98.58 54.22 100.21 53.10 101.74 51.98 C 101.73 52.67 101.70 54.04 101.68 54.73 C 100.52 55.60 99.35 56.47 98.17 57.33 C 98.06 56.99 97.82 56.31 97.71 55.97 Z"
       id="path205" />
    <path
       fill="#5b3f3c"
       opacity="1.00"
       d=" M 90.74 54.71 C 90.78 54.58 90.88 54.33 90.92 54.21 L 90.74 54.71 Z"
       id="path207" />
    <path
       fill="#5b3f3c"
       opacity="1.00"
       d=" M 97.91 61.21 C 101.40 59.30 104.74 56.85 108.56 55.67 C 109.12 55.92 110.25 56.41 110.82 56.65 C 109.86 57.94 108.90 59.22 107.95 60.51 C 109.87 60.48 111.80 60.46 113.72 60.43 C 114.44 61.90 115.44 63.30 115.74 64.94 C 113.90 68.84 110.70 71.86 108.04 75.20 C 108.60 75.21 109.70 75.23 110.25 75.24 L 109.65 75.92 C 108.38 75.94 107.10 75.93 105.83 75.90 C 103.05 75.02 105.49 70.39 107.13 73.44 C 107.71 72.81 108.29 72.18 108.87 71.55 C 107.22 71.49 105.43 70.25 103.85 70.77 C 103.22 72.22 103.88 74.07 103.67 75.60 L 102.54 75.70 C 102.29 74.36 102.00 73.03 101.70 71.70 L 101.17 71.47 C 100.81 71.31 100.09 70.99 99.73 70.83 C 99.23 67.91 98.83 64.89 97.09 62.39 L 97.91 61.21 M 105.50 65.01 C 104.45 66.42 107.01 67.45 107.92 66.45 C 109.09 65.06 106.39 63.89 105.50 65.01 Z"
       id="path209" />
    <path
       fill="#5b3f3c"
       opacity="1.00"
       d=" M 111.38 79.35 C 123.11 78.57 134.45 75.33 145.47 71.37 C 146.03 75.59 145.34 79.80 144.69 83.96 C 143.89 97.31 145.31 112.14 154.62 122.55 L 154.12 122.57 C 140.38 123.11 126.63 122.50 112.90 122.89 C 125.90 121.91 138.99 122.89 152.02 122.38 C 149.79 117.81 146.92 113.50 145.63 108.53 C 142.30 96.97 143.94 84.87 144.82 73.10 C 134.26 76.60 123.59 80.30 112.33 80.45 C 112.33 94.42 112.38 108.39 112.29 122.37 C 111.05 121.20 111.48 119.44 111.38 117.95 C 111.45 105.08 111.46 92.22 111.38 79.35 Z"
       id="path211" />
    <path
       fill="#5b3f3c"
       opacity="1.00"
       d=" M 91.40 83.11 C 92.04 83.70 92.68 84.30 93.32 84.90 C 93.32 85.01 93.34 85.23 93.34 85.33 C 92.34 86.55 91.29 87.72 90.25 88.90 C 90.89 90.14 91.84 91.32 91.88 92.77 C 90.00 92.57 88.99 90.71 87.88 89.42 C 87.14 89.42 86.39 89.43 85.65 89.43 C 85.30 90.34 84.96 91.26 84.57 92.16 C 86.03 94.60 86.76 98.07 90.31 97.99 C 90.02 98.37 89.46 99.14 89.17 99.52 C 88.41 99.59 86.89 99.74 86.13 99.81 C 84.08 96.99 81.74 94.07 82.36 90.33 C 84.50 89.37 86.62 88.39 88.73 87.40 C 88.73 86.29 88.73 85.18 88.72 84.07 C 89.39 83.83 90.73 83.35 91.40 83.11 Z"
       id="path213" />
    <path
       fill="#5b3f3c"
       opacity="1.00"
       d=" M 91.91 89.81 C 93.98 89.40 96.05 89.02 98.12 88.63 C 98.01 89.26 97.79 90.52 97.67 91.15 C 96.22 94.14 92.80 92.25 91.91 89.81 Z"
       id="path215" />
    <path
       fill="#5b3f3c"
       opacity="1.00"
       d=" M 119.75 108.40 L 120.28 108.72 C 118.72 111.32 117.57 114.12 116.27 116.84 C 116.94 117.42 117.62 117.98 118.30 118.55 C 125.80 117.80 133.43 117.07 140.94 117.99 C 142.40 118.82 143.90 119.58 145.22 120.62 C 135.50 119.91 125.73 118.56 115.98 119.70 C 115.74 115.54 118.22 112.07 119.75 108.40 Z"
       id="path217" />
    <path
       fill="#5b3f3c"
       opacity="1.00"
       d=" M 107.06 135.60 C 110.55 135.62 114.03 135.30 117.46 134.63 C 125.16 136.75 133.10 137.96 141.04 138.76 C 144.69 139.29 148.56 140.05 151.48 142.47 L 151.36 144.42 L 150.86 144.12 C 150.64 143.99 150.19 143.73 149.97 143.59 C 148.18 144.72 146.45 146.73 144.10 145.98 C 140.06 145.32 135.98 145.78 131.92 145.79 C 120.94 144.96 109.97 141.54 98.92 143.51 C 97.20 143.58 95.76 144.50 94.50 145.60 C 94.34 145.63 94.01 145.69 93.85 145.72 C 92.07 146.01 90.27 146.12 88.48 146.28 C 82.81 143.73 76.50 144.60 70.49 144.49 C 75.03 141.44 80.48 143.03 85.53 142.27 C 89.58 140.82 93.67 139.21 98.08 139.76 C 101.43 139.32 104.44 137.67 107.06 135.60 Z"
       id="path219" />
    <path
       fill="#5b3f3c"
       opacity="1.00"
       d=" M 73.80 152.51 C 78.35 152.60 82.85 151.92 87.35 151.34 C 87.31 153.59 87.27 155.85 87.25 158.11 C 85.87 158.63 84.48 159.10 83.09 159.58 C 83.83 158.58 84.57 157.56 85.30 156.55 C 82.95 156.56 80.60 156.73 78.28 157.09 C 76.71 155.64 75.20 154.12 73.80 152.51 Z"
       id="path221" />
    <path
       fill="#5b3f3c"
       opacity="1.00"
       d=" M 87.83 155.64 C 88.88 155.46 89.93 155.28 90.99 155.10 C 91.36 157.18 91.78 159.26 92.26 161.32 C 92.37 159.38 92.50 157.45 92.66 155.52 C 93.35 155.34 94.73 154.98 95.42 154.81 C 95.58 155.86 95.90 157.96 96.06 159.01 C 96.51 158.47 97.43 157.40 97.88 156.87 C 97.73 157.60 97.43 159.07 97.28 159.81 L 99.36 159.91 C 99.86 158.55 100.37 157.21 100.86 155.85 C 101.48 156.23 102.71 156.99 103.33 157.37 C 104.08 157.66 104.85 157.57 105.63 157.09 C 105.95 157.50 106.60 158.30 106.93 158.70 C 106.39 159.39 105.85 160.08 105.31 160.77 C 106.32 161.44 107.34 162.11 108.35 162.79 C 108.13 163.16 107.68 163.89 107.46 164.26 C 108.05 165.32 108.40 166.47 108.65 167.65 C 111.35 167.51 114.20 167.26 116.59 168.82 C 114.65 169.25 112.71 169.64 110.77 170.05 C 109.21 170.37 107.65 170.74 106.10 171.12 C 106.01 169.44 105.41 167.58 106.66 166.15 C 106.06 165.60 105.45 165.05 104.85 164.50 C 103.98 165.52 103.12 166.54 102.25 167.57 C 101.13 167.37 100.01 167.17 98.89 166.99 C 97.60 166.46 96.10 167.55 96.11 168.92 C 92.96 167.52 90.02 165.72 87.09 163.92 C 87.67 163.25 88.25 162.58 88.84 161.91 C 88.52 160.55 88.21 159.19 87.94 157.83 C 87.91 157.28 87.86 156.18 87.83 155.64 Z"
       id="path223" />
    <path
       fill="#5b3f3c"
       opacity="1.00"
       d=" M 124.10 160.23 C 124.31 158.85 126.93 158.44 127.16 159.99 C 126.98 161.39 124.29 161.83 124.10 160.23 Z"
       id="path225" />
    <path
       fill="#5b3f3c"
       opacity="1.00"
       d=" M 109.47 163.13 C 110.69 162.26 111.37 162.51 111.51 163.89 C 110.29 164.77 109.61 164.51 109.47 163.13 Z"
       id="path227" />
  </g>
  <g
     id="#469842ff">
    <path
       fill="#469842"
       opacity="1.00"
       d=" M 169.82 23.90 L 170.67 24.12 C 170.63 24.56 170.56 25.43 170.52 25.87 C 170.35 25.38 170.00 24.39 169.82 23.90 Z"
       id="path230" />
    <path
       fill="#469842"
       opacity="1.00"
       d=" M 76.38 70.39 L 76.82 70.06 C 77.23 71.25 77.68 72.41 78.20 73.56 C 77.25 73.58 75.36 73.63 74.41 73.66 C 76.73 90.19 77.34 108.86 66.68 122.84 L 64.88 123.27 C 66.66 119.08 69.96 115.71 71.36 111.33 C 76.09 98.93 74.38 85.47 73.29 72.60 C 74.32 71.87 75.36 71.14 76.38 70.39 Z"
       id="path232" />
    <path
       fill="#469842"
       opacity="1.00"
       d=" M 93.91 77.29 C 98.38 78.31 102.96 78.84 107.55 78.73 C 108.77 84.07 108.17 89.55 108.26 94.97 C 108.02 104.21 108.83 113.50 107.85 122.70 L 106.62 122.79 C 106.71 108.69 106.67 94.59 106.63 80.50 C 102.41 80.33 98.17 80.03 94.03 79.13 C 94.00 78.67 93.94 77.75 93.91 77.29 Z"
       id="path234" />
    <path
       fill="#469842"
       opacity="1.00"
       d=" M 300.39 83.30 C 300.81 82.00 301.24 80.71 301.69 79.43 C 303.67 79.49 305.65 79.55 307.64 79.65 C 306.17 82.39 303.48 83.76 300.39 83.30 Z"
       id="path236"
       style="stroke:#ffffff;fill:#ffffff" />
    <path
       fill="#469842"
       opacity="1.00"
       d=" M 98.77 149.85 L 98.82 150.59 C 98.72 151.63 98.61 152.67 98.48 153.72 C 97.79 153.77 96.39 153.87 95.70 153.92 L 95.77 153.71 C 95.94 153.16 96.30 152.06 96.48 151.52 C 96.97 151.45 97.95 151.33 98.44 151.27 L 98.77 149.85 Z"
       id="path238" />
    <path
       fill="#469842"
       opacity="1.00"
       d=" M 105.35 155.22 C 111.03 154.18 116.82 154.51 122.57 154.29 C 127.14 154.24 131.73 153.55 136.27 154.41 C 135.49 154.48 133.93 154.61 133.15 154.67 C 133.27 155.21 133.51 156.29 133.62 156.82 C 132.57 156.78 131.52 156.74 130.47 156.70 C 130.49 156.31 130.53 155.53 130.54 155.14 C 126.46 155.59 121.72 154.69 118.65 158.11 C 120.14 158.50 121.62 158.90 123.12 159.28 C 122.49 159.87 121.85 160.45 121.20 161.01 C 120.22 160.54 119.26 160.05 118.32 159.55 C 118.08 159.50 117.60 159.42 117.36 159.37 C 117.02 159.31 116.36 159.18 116.02 159.11 C 117.55 158.11 118.97 156.96 119.99 155.43 C 115.50 155.90 111.19 157.28 106.93 158.70 C 106.60 158.30 105.95 157.50 105.63 157.09 C 105.56 156.63 105.42 155.69 105.35 155.22 Z"
       id="path240" />
    <path
       fill="#469842"
       opacity="1.00"
       d=" M 78.28 157.09 C 80.60 156.73 82.95 156.56 85.30 156.55 C 84.57 157.56 83.83 158.58 83.09 159.58 C 84.48 159.10 85.87 158.63 87.25 158.11 L 87.94 157.83 C 88.21 159.19 88.52 160.55 88.84 161.91 C 88.25 162.58 87.67 163.25 87.09 163.92 C 83.93 161.94 81.01 159.62 78.28 157.09 Z"
       id="path242" />
    <path
       fill="#469842"
       opacity="1.00"
       d=" M 134.70 157.69 C 136.65 157.59 138.61 157.52 140.57 157.50 C 139.39 158.53 138.17 159.51 136.92 160.46 C 136.18 159.54 135.44 158.61 134.70 157.69 Z"
       id="path244" />
    <path
       fill="#469842"
       opacity="1.00"
       d=" M 130.78 160.00 C 131.56 159.04 132.47 158.90 133.53 159.58 C 134.35 161.03 131.66 161.33 130.90 160.58 L 130.78 160.00 Z"
       id="path246" />
    <path
       fill="#469842"
       opacity="1.00"
       d=" M 106.10 171.12 C 107.65 170.74 109.21 170.37 110.77 170.05 C 112.41 171.18 114.36 171.55 116.31 171.59 C 114.23 172.31 112.16 173.16 109.97 173.47 C 107.80 173.34 105.79 172.32 103.75 171.66 C 104.34 171.52 105.52 171.26 106.10 171.12 Z"
       id="path248" />
    <path
       fill="#469842"
       opacity="1.00"
       d=" M 24.86 175.26 C 27.69 175.71 30.48 176.35 33.28 176.97 L 34.15 177.32 L 34.41 177.69 C 34.74 177.65 35.39 177.59 35.71 177.56 C 38.96 178.09 42.08 179.20 45.29 179.93 L 46.04 180.22 L 46.21 180.46 L 47.30 180.90 L 47.67 180.64 C 50.12 180.74 52.61 182.08 55.05 182.79 C 55.19 184.80 55.33 186.80 55.48 188.81 C 44.03 184.93 32.05 183.35 20.18 181.38 C 22.10 179.63 23.82 177.66 24.86 175.26 Z"
       id="path250" />
    <path
       fill="#469842"
       opacity="1.00"
       d=" M 177.67 178.97 C 183.35 177.64 188.99 176.15 194.75 175.16 C 195.86 177.51 197.27 179.70 198.93 181.70 C 187.10 183.53 174.95 184.53 163.69 188.81 C 163.68 191.08 163.68 193.35 163.72 195.62 C 159.82 196.65 155.84 197.33 151.97 198.45 C 151.68 198.75 151.09 199.36 150.80 199.66 C 149.84 199.49 148.88 199.35 147.91 199.24 C 137.31 200.05 126.70 201.00 116.05 200.76 C 101.15 200.49 86.14 201.16 71.33 199.16 C 70.82 199.08 69.80 198.91 69.29 198.82 C 64.63 197.84 59.94 196.95 55.41 195.46 C 55.54 193.42 55.64 191.38 55.70 189.34 C 58.62 189.91 61.54 190.54 64.35 191.53 C 64.62 191.59 65.16 191.72 65.43 191.79 L 66.35 191.67 C 81.06 194.28 96.06 194.17 110.95 194.24 C 128.38 194.17 146.19 194.22 163.05 189.25 C 164.65 187.45 165.30 183.46 162.26 182.58 C 162.65 182.47 163.44 182.25 163.84 182.14 C 167.80 181.92 171.48 180.38 175.31 179.50 C 175.58 179.55 176.13 179.66 176.40 179.71 L 176.72 179.34 L 177.67 178.97 Z"
       id="path252" />
  </g>
  <g
     id="#392a28ff">
    <path
       fill="#392a28"
       opacity="1.00"
       d=" M 135.36 30.11 C 136.21 30.45 137.06 30.78 137.91 31.11 C 137.59 31.45 136.94 32.12 136.62 32.46 C 136.68 32.95 136.81 33.93 136.87 34.43 C 135.50 34.30 134.12 34.17 132.76 34.02 C 133.35 33.72 134.53 33.10 135.12 32.80 C 135.18 32.13 135.30 30.79 135.36 30.11 Z"
       id="path255" />
    <path
       fill="#392a28"
       opacity="1.00"
       d=" M 167.63 138.92 C 168.76 135.91 165.18 133.02 167.52 130.31 C 167.29 134.12 170.79 135.72 173.97 136.27 C 173.15 137.89 171.38 137.79 169.83 137.87 C 167.25 140.99 165.27 144.54 162.96 147.85 C 163.87 147.73 165.68 147.47 166.59 147.34 C 166.80 147.96 167.20 149.20 167.41 149.82 C 169.04 147.90 171.88 145.71 170.12 142.91 C 170.40 142.55 170.95 141.83 171.23 141.46 L 171.38 141.81 C 172.04 144.34 173.81 146.66 176.63 145.28 C 176.07 147.55 173.74 146.83 172.02 146.63 C 166.50 150.21 162.36 155.49 156.96 159.23 C 158.24 159.96 159.53 160.70 160.81 161.44 C 159.75 166.63 152.61 166.23 149.49 163.12 L 149.12 164.37 C 148.67 164.65 147.78 165.21 147.33 165.49 C 143.11 167.65 138.76 169.59 134.78 172.20 C 136.27 175.04 137.87 177.83 139.51 180.59 C 138.97 180.63 137.89 180.72 137.35 180.76 C 135.89 178.25 134.40 175.75 132.92 173.25 C 132.04 173.44 130.27 173.83 129.39 174.03 C 130.13 173.35 130.86 172.67 131.57 171.96 L 131.93 170.87 C 132.22 170.32 132.52 169.78 132.85 169.26 C 133.36 169.76 134.37 170.75 134.88 171.24 C 139.82 168.28 144.57 165.00 149.51 162.02 C 148.75 160.57 148.00 159.11 147.27 157.64 C 148.23 156.45 149.15 155.22 150.07 154.00 C 151.04 155.27 151.78 156.70 152.08 158.29 C 152.51 158.92 152.95 159.55 153.38 160.19 C 153.03 160.55 152.33 161.28 151.98 161.65 C 152.96 161.15 153.94 160.64 154.90 160.11 C 154.49 158.02 153.52 154.22 156.85 154.31 C 157.87 153.13 158.88 151.94 159.89 150.75 C 159.49 149.85 159.09 148.96 158.69 148.07 C 158.94 147.25 159.43 145.61 159.68 144.79 C 160.47 145.85 161.23 146.92 162.00 148.00 C 163.99 145.05 166.25 142.23 167.63 138.92 M 156.71 158.41 C 159.49 156.93 161.66 154.62 164.09 152.67 C 164.18 152.02 164.36 150.72 164.44 150.07 C 160.40 150.35 156.77 154.42 156.71 158.41 Z"
       id="path257" />
    <path
       fill="#392a28"
       opacity="1.00"
       d=" M 98.92 143.51 C 109.97 141.54 120.94 144.96 131.92 145.79 C 135.98 145.78 140.06 145.32 144.10 145.98 C 146.45 146.73 148.18 144.72 149.97 143.59 C 150.19 143.73 150.64 143.99 150.86 144.12 C 148.76 148.82 145.50 152.90 141.76 156.41 C 140.87 155.84 139.99 155.26 139.11 154.69 C 138.40 154.62 136.98 154.48 136.27 154.41 C 131.73 153.55 127.14 154.24 122.57 154.29 C 119.35 151.61 114.94 152.37 111.08 151.79 C 107.50 151.26 103.18 151.68 100.76 148.44 C 99.22 146.56 96.77 146.05 94.50 145.60 C 95.76 144.50 97.20 143.58 98.92 143.51 Z"
       id="path259" />
    <path
       fill="#392a28"
       opacity="1.00"
       d=" M 88.91 148.25 C 92.27 148.48 87.35 151.25 88.91 148.25 Z"
       id="path261" />
    <path
       fill="#392a28"
       opacity="1.00"
       d=" M 102.25 167.57 C 103.12 166.54 103.98 165.52 104.85 164.50 C 105.45 165.05 106.06 165.60 106.66 166.15 C 105.41 167.58 106.01 169.44 106.10 171.12 C 105.52 171.26 104.34 171.52 103.75 171.66 C 101.43 170.86 99.12 170.06 96.83 169.22 C 97.55 169.09 99.00 168.84 99.72 168.72 C 99.51 168.29 99.10 167.42 98.89 166.99 C 100.01 167.17 101.13 167.37 102.25 167.57 Z"
       id="path263" />
    <path
       fill="#392a28"
       opacity="1.00"
       d=" M 54.71 179.81 C 51.57 179.98 54.79 174.88 55.96 177.92 C 55.65 178.39 55.02 179.34 54.71 179.81 Z"
       id="path265" />
  </g>
  <g
     id="#171917ff">
    <path
       fill="#171917"
       opacity="1.00"
       d=" M 53.40 36.14 C 54.67 36.13 55.94 36.17 57.21 36.29 C 57.38 36.74 57.71 37.64 57.87 38.09 C 62.89 48.35 69.24 57.93 74.92 67.85 C 74.28 67.82 73.00 67.77 72.36 67.74 C 69.47 62.53 66.58 57.33 63.46 52.25 C 62.68 50.91 61.93 49.55 61.19 48.19 C 60.40 46.71 59.63 45.22 58.80 43.76 C 57.90 42.60 57.38 40.52 55.54 40.76 C 57.89 39.35 53.95 37.55 53.40 36.14 Z"
       id="path268" />
    <path
       fill="#171917"
       opacity="1.00"
       d=" M 136.82 86.79 L 137.72 85.82 C 137.44 86.43 136.87 87.66 136.59 88.27 C 132.93 92.02 133.68 97.69 131.42 102.15 C 131.37 100.50 131.34 98.86 131.45 97.22 C 131.63 95.87 132.24 94.51 131.79 93.16 C 129.42 91.93 127.49 94.64 125.96 96.07 C 125.76 94.75 124.72 93.15 126.02 92.07 C 128.03 90.32 130.60 92.30 132.88 92.11 C 134.64 90.80 135.31 88.40 136.82 86.79 Z"
       id="path270" />
    <path
       fill="#171917"
       opacity="1.00"
       d=" M 138.14 88.71 C 139.84 88.79 140.32 89.65 139.60 91.31 C 138.16 91.03 137.67 90.17 138.14 88.71 Z"
       id="path272" />
    <path
       fill="#171917"
       opacity="1.00"
       d=" M 139.02 96.22 C 139.01 94.76 139.38 93.42 140.12 92.19 C 141.15 94.10 140.53 96.25 140.43 98.29 C 138.79 98.96 137.95 100.23 138.56 101.99 C 136.01 102.17 135.08 104.72 132.96 105.65 C 132.58 105.82 131.81 106.16 131.43 106.32 C 128.80 105.66 126.09 105.86 123.42 106.22 L 123.47 104.67 C 125.35 104.56 127.24 104.57 129.13 104.58 C 129.54 104.29 130.35 103.72 130.76 103.43 C 131.73 103.63 132.70 103.73 133.68 103.72 C 133.81 103.05 134.05 101.71 134.17 101.04 C 134.86 100.92 136.23 100.69 136.91 100.57 C 137.08 99.56 137.25 98.56 137.42 97.55 C 137.82 97.22 138.62 96.55 139.02 96.22 Z"
       id="path274" />
    <path
       fill="#171917"
       opacity="1.00"
       d=" M 118.26 98.24 C 119.63 100.56 121.36 102.59 123.40 104.35 C 123.19 104.68 122.75 105.34 122.53 105.67 C 120.76 103.43 118.01 101.44 118.26 98.24 Z"
       id="path276" />
    <path
       fill="#171917"
       opacity="1.00"
       d=" M 47.23 128.56 C 48.37 129.07 49.51 129.57 50.68 130.02 C 51.21 132.82 51.83 135.60 52.26 138.43 C 50.54 137.10 48.73 135.89 47.03 134.53 C 46.33 133.41 45.76 132.22 45.16 131.05 C 45.85 130.22 46.54 129.39 47.23 128.56 Z"
       id="path278" />
    <path
       fill="#171917"
       opacity="1.00"
       d=" M 49.16 145.29 C 50.32 145.42 51.47 145.55 52.62 145.68 C 53.64 148.11 55.10 150.37 57.21 152.00 C 59.25 153.57 61.27 155.92 64.08 155.70 C 61.26 152.40 57.99 149.47 55.64 145.79 L 56.54 146.51 C 59.90 149.47 62.09 153.59 65.81 156.21 C 71.78 160.52 77.30 165.65 84.24 168.40 C 84.39 168.87 84.53 169.35 84.65 169.84 C 77.96 166.50 71.43 162.86 65.54 158.23 L 65.95 156.60 C 64.08 159.30 62.53 156.84 61.10 155.82 C 57.98 153.32 55.09 149.60 50.64 150.07 C 50.63 149.92 50.61 149.63 50.60 149.48 C 50.17 148.07 49.66 146.68 49.16 145.29 Z"
       id="path280" />
    <path
       fill="#171917"
       opacity="1.00"
       d=" M 68.90 144.99 L 70.49 144.49 C 76.50 144.60 82.81 143.73 88.48 146.28 C 87.86 147.88 87.67 149.59 87.70 151.29 L 87.35 151.34 C 82.85 151.92 78.35 152.60 73.80 152.51 C 71.91 150.18 70.31 147.64 68.90 144.99 Z"
       id="path282" />
    <path
       fill="#171917"
       opacity="1.00"
       d=" M 93.07 146.15 C 95.47 146.24 99.38 146.35 98.77 149.85 L 98.44 151.27 C 97.95 151.33 96.97 151.45 96.48 151.52 C 94.56 150.22 92.65 148.81 93.07 146.15 Z"
       id="path284" />
    <path
       fill="#171917"
       opacity="1.00"
       d=" M 100.76 148.44 C 103.18 151.68 107.50 151.26 111.08 151.79 C 114.94 152.37 119.35 151.61 122.57 154.29 C 116.82 154.51 111.03 154.18 105.35 155.22 C 105.42 155.69 105.56 156.63 105.63 157.09 C 104.85 157.57 104.08 157.66 103.33 157.37 C 100.96 155.00 99.76 151.76 100.76 148.44 Z"
       id="path286" />
    <path
       fill="#171917"
       opacity="1.00"
       d=" M 96.11 168.92 C 96.10 167.55 97.60 166.46 98.89 166.99 C 99.10 167.42 99.51 168.29 99.72 168.72 C 99.00 168.84 97.55 169.09 96.83 169.22 L 96.11 168.92 Z"
       id="path288" />
    <path
       fill="#171917"
       opacity="1.00"
       d=" M 182.45 170.48 C 182.78 170.47 183.43 170.46 183.76 170.46 C 183.99 170.80 184.44 171.49 184.67 171.83 C 183.97 173.72 184.19 176.16 182.40 177.44 C 182.49 176.34 182.68 174.13 182.77 173.03 C 182.22 173.12 181.13 173.29 180.58 173.38 L 180.69 171.89 L 183.43 172.16 C 183.11 171.80 182.47 171.10 182.15 170.74 L 182.45 170.48 Z"
       id="path290" />
    <path
       fill="#171917"
       opacity="1.00"
       d=" M 30.29 171.62 C 30.84 171.31 31.95 170.70 32.50 170.40 L 32.59 170.40 C 36.02 171.07 34.16 173.36 32.81 174.98 C 34.20 174.81 35.46 175.13 36.57 175.94 L 37.00 176.06 C 36.86 174.45 36.54 172.87 35.12 171.87 C 36.09 171.97 38.04 172.18 39.02 172.28 C 38.81 174.57 38.48 177.14 35.71 177.56 C 35.39 177.59 34.74 177.65 34.41 177.69 L 34.15 177.32 C 34.48 176.91 35.13 176.09 35.46 175.68 C 33.39 175.83 31.32 175.66 29.32 175.12 C 30.49 173.95 31.89 173.06 33.29 172.20 C 32.54 172.05 31.04 171.76 30.29 171.62 Z"
       id="path292" />
    <path
       fill="#171917"
       opacity="1.00"
       d=" M 84.59 171.84 C 85.54 171.52 86.50 171.26 87.48 171.03 C 85.47 174.18 83.55 177.39 81.88 180.73 C 81.08 180.67 80.29 180.62 79.49 180.57 C 81.22 177.68 82.62 174.59 84.59 171.84 Z"
       id="path294" />
    <path
       fill="#171917"
       opacity="1.00"
       d=" M 176.74 176.28 C 176.13 173.96 176.79 172.40 179.36 172.27 C 179.72 173.71 180.76 175.06 180.67 176.57 C 180.32 178.41 177.88 177.61 176.63 177.80 C 177.40 176.50 179.85 177.15 179.22 175.12 C 178.60 175.41 177.36 175.99 176.74 176.28 Z"
       id="path296" />
    <path
       fill="#171917"
       opacity="1.00"
       d=" M 42.01 176.64 C 41.24 173.68 43.61 173.18 45.88 173.82 C 45.34 175.69 46.69 179.24 43.20 178.70 C 43.33 178.06 43.61 176.77 43.74 176.12 C 43.31 176.25 42.44 176.51 42.01 176.64 Z"
       id="path298" />
    <path
       fill="#171917"
       opacity="1.00"
       d=" M 167.48 174.38 C 168.04 174.31 169.16 174.16 169.71 174.08 L 170.23 174.01 C 170.36 176.15 170.82 178.25 170.83 180.40 C 169.53 179.22 169.09 177.10 167.06 176.94 C 167.39 176.78 168.05 176.45 168.38 176.29 C 168.08 175.89 167.48 175.08 167.18 174.67 L 167.48 174.38 Z"
       id="path300" />
    <path
       fill="#171917"
       opacity="1.00"
       d=" M 171.83 174.27 C 172.61 174.15 174.17 173.92 174.95 173.80 C 175.23 174.29 175.77 175.27 176.05 175.76 C 175.87 177.02 176.10 178.22 176.72 179.34 L 176.40 179.71 C 176.13 179.66 175.58 179.55 175.31 179.50 C 174.52 179.32 172.95 178.94 172.17 178.75 C 173.17 178.23 174.18 177.72 175.20 177.20 C 174.36 177.21 172.68 177.22 171.84 177.23 C 171.84 176.49 171.83 175.01 171.83 174.27 M 173.36 175.20 C 174.00 175.84 174.00 175.84 173.36 175.20 Z"
       id="path302" />
    <path
       fill="#171917"
       opacity="1.00"
       d=" M 46.77 176.08 C 46.96 173.46 49.88 175.52 51.22 175.82 C 50.45 176.01 48.91 176.39 48.14 176.58 L 51.52 176.60 C 50.89 177.05 49.62 177.94 48.99 178.38 L 50.78 180.00 L 48.57 179.95 C 48.35 180.12 47.90 180.47 47.67 180.64 L 47.30 180.90 L 46.21 180.46 L 46.04 180.22 C 46.45 179.91 47.26 179.29 47.66 178.99 L 45.92 178.81 C 46.13 178.13 46.56 176.76 46.77 176.08 Z"
       id="path304" />
    <path
       fill="#171917"
       opacity="1.00"
       d=" M 52.62 176.31 C 54.16 176.47 52.91 180.75 51.49 180.37 C 51.15 178.98 51.70 177.36 52.62 176.31 Z"
       id="path306" />
    <path
       fill="#171917"
       opacity="1.00"
       d=" M 42.20 177.09 C 42.86 177.75 42.86 177.75 42.20 177.09 Z"
       id="path308" />
    <path
       fill="#171917"
       opacity="1.00"
       d=" M 62.67 185.15 C 66.39 185.42 70.08 185.90 73.79 186.30 C 73.78 186.63 73.76 187.30 73.75 187.63 C 72.51 187.56 71.27 187.49 70.03 187.42 C 70.05 188.24 70.07 189.89 70.08 190.71 C 68.75 190.72 67.51 191.04 66.35 191.67 L 65.43 191.79 C 65.16 191.72 64.62 191.59 64.35 191.53 C 66.36 190.90 66.95 189.03 66.51 187.09 C 65.06 186.74 62.90 187.20 62.67 185.15 Z"
       id="path310" />
    <path
       fill="#171917"
       opacity="1.00"
       d=" M 75.54 186.33 C 75.83 186.38 76.42 186.48 76.71 186.53 C 77.31 186.64 78.52 186.87 79.12 186.98 C 78.98 188.60 78.86 190.21 78.74 191.83 C 77.54 191.72 76.34 191.62 75.14 191.52 C 75.23 189.78 75.37 188.05 75.54 186.33 Z"
       id="path312" />
    <path
       fill="#171917"
       opacity="1.00"
       d=" M 80.33 190.01 C 81.14 187.99 83.11 187.12 85.18 187.16 C 86.56 187.34 87.95 187.54 89.34 187.71 C 93.03 187.30 92.51 190.77 92.64 193.16 C 88.51 192.23 83.59 193.35 80.33 190.01 M 84.27 189.32 C 84.66 191.81 87.55 190.23 89.22 190.59 C 89.11 188.09 85.79 188.04 84.27 189.32 Z"
       id="path314" />
    <path
       fill="#171917"
       opacity="1.00"
       d=" M 134.61 187.32 C 136.49 187.21 138.35 187.47 140.06 188.30 C 141.80 187.13 143.85 186.72 145.94 186.80 C 144.75 187.69 143.55 188.56 142.33 189.39 C 142.25 190.01 142.11 191.26 142.04 191.89 C 141.19 191.97 139.50 192.13 138.65 192.21 C 138.54 191.68 138.32 190.63 138.21 190.10 C 136.92 189.28 135.64 188.45 134.61 187.32 Z"
       id="path316" />
    <path
       fill="#171917"
       opacity="1.00"
       d=" M 149.02 186.78 L 149.21 186.63 L 149.78 186.93 C 150.00 187.39 150.44 188.30 150.66 188.76 C 150.88 188.83 151.31 188.95 151.53 189.02 C 151.60 188.48 151.75 187.39 151.82 186.85 C 152.13 184.04 154.69 187.92 155.68 188.50 C 156.05 189.02 156.81 190.07 157.18 190.59 C 153.01 189.85 148.98 190.60 144.98 191.79 C 146.17 190.02 147.15 187.96 149.02 186.78 Z"
       id="path318" />
    <path
       fill="#171917"
       opacity="1.00"
       d=" M 94.60 187.86 C 95.50 187.89 97.28 187.95 98.18 187.98 C 98.18 189.18 98.19 190.38 98.21 191.59 C 99.35 191.63 100.49 191.66 101.63 191.69 C 101.81 190.47 102.00 189.24 102.18 188.02 C 103.37 188.06 104.57 188.10 105.76 188.14 C 105.37 189.75 105.93 192.17 103.86 192.75 C 101.27 193.55 98.22 193.50 95.73 192.36 C 93.83 191.74 94.82 189.29 94.60 187.86 Z"
       id="path320" />
    <path
       fill="#171917"
       opacity="1.00"
       d=" M 107.90 188.15 C 109.11 188.16 110.33 188.17 111.54 188.19 C 111.46 189.87 111.40 191.55 111.34 193.24 C 110.44 193.23 108.64 193.23 107.74 193.22 C 107.79 191.53 107.84 189.84 107.90 188.15 Z"
       id="path322" />
    <path
       fill="#171917"
       opacity="1.00"
       d=" M 113.87 188.18 C 116.98 188.32 120.58 187.21 123.37 188.86 C 124.23 191.78 119.44 191.26 117.54 191.51 C 117.51 191.93 117.44 192.77 117.40 193.19 C 116.50 193.19 114.71 193.19 113.81 193.19 C 113.82 191.51 113.84 189.84 113.87 188.18 M 117.46 189.16 C 117.74 190.45 118.49 190.65 119.72 189.77 C 119.44 188.47 118.68 188.27 117.46 189.16 Z"
       id="path324" />
    <path
       fill="#171917"
       opacity="1.00"
       d=" M 122.86 193.01 C 124.10 191.23 125.45 189.54 126.86 187.89 C 130.69 186.78 133.66 189.30 135.29 192.57 C 131.83 193.81 130.39 190.59 128.07 188.98 C 128.22 189.73 128.51 191.22 128.66 191.96 C 126.78 192.58 124.83 192.94 122.86 193.01 Z"
       id="path326" />
    <path
       fill="#171917"
       opacity="1.00"
       d=" M 69.29 198.82 C 69.80 198.91 70.82 199.08 71.33 199.16 C 68.88 203.13 66.68 207.28 63.96 211.08 L 62.81 211.37 L 62.56 210.10 C 64.75 206.31 66.93 202.51 69.29 198.82 Z"
       id="path328" />
    <path
       fill="#171917"
       opacity="1.00"
       d=" M 147.91 199.24 C 148.88 199.35 149.84 199.49 150.80 199.66 C 152.77 203.03 154.66 206.47 156.49 209.93 L 155.96 210.93 L 155.03 210.80 C 152.43 207.10 150.41 203.02 147.91 199.24 Z"
       id="path330" />
  </g>
  <g
     id="#bc2f22ff">
    <path
       fill="#bc2f22"
       opacity="1.00"
       d=" M 158.20 43.37 C 159.33 41.36 160.55 39.38 162.20 37.73 C 164.95 42.73 170.95 43.93 175.66 46.34 C 179.69 48.51 184.90 47.90 188.45 50.91 C 188.63 53.88 185.99 55.93 184.51 58.24 C 183.89 56.61 183.87 54.63 182.67 53.29 C 180.33 51.60 177.42 51.02 174.74 50.06 C 169.02 48.33 163.88 45.19 158.20 43.37 Z"
       id="path333" />
    <path
       fill="#bc2f22"
       opacity="1.00"
       d=" M 34.95 49.03 C 42.15 47.18 49.01 44.28 55.54 40.76 C 57.38 40.52 57.90 42.60 58.80 43.76 C 52.39 47.65 45.17 49.73 38.21 52.33 C 35.31 53.16 35.50 56.44 35.42 58.85 C 33.91 56.86 32.14 55.08 30.79 52.98 C 29.93 50.26 33.08 49.62 34.95 49.03 Z"
       id="path335" />
    <path
       fill="#bc2f22"
       opacity="1.00"
       d=" M 50.52 72.24 C 51.66 72.11 52.80 71.96 53.94 71.78 C 55.43 77.16 56.32 82.96 54.36 88.36 C 51.41 97.06 44.24 103.40 37.07 108.72 C 33.80 108.76 30.54 108.78 27.27 108.82 C 35.41 104.11 43.78 98.62 48.22 90.01 C 51.46 84.70 51.76 78.20 50.52 72.24 Z"
       id="path337" />
    <path
       fill="#bc2f22"
       opacity="1.00"
       d=" M 165.40 71.71 C 166.46 71.97 167.52 72.24 168.57 72.55 C 166.70 79.54 168.87 87.07 172.79 92.97 C 178.05 100.05 185.41 105.27 193.13 109.39 C 189.54 108.84 185.90 107.97 182.27 108.74 C 175.06 103.36 167.83 96.97 164.88 88.18 C 163.01 82.81 163.91 77.05 165.40 71.71 Z"
       id="path339" />
    <path
       fill="#bc2f22"
       opacity="1.00"
       d=" M 81.10 105.22 C 82.60 103.26 84.26 101.43 86.13 99.81 C 86.89 99.74 88.41 99.59 89.17 99.52 C 90.38 99.43 91.59 99.33 92.80 99.24 C 95.13 102.19 95.79 105.88 95.66 109.55 C 90.93 110.74 86.11 109.87 81.51 108.60 C 81.37 107.47 81.23 106.34 81.10 105.22 Z"
       id="path341" />
    <path
       fill="#bc2f22"
       opacity="1.00"
       d=" M 169.65 122.68 C 172.53 123.84 175.53 124.91 177.97 126.92 C 176.84 127.85 175.71 128.77 174.57 129.68 C 174.35 131.87 174.10 134.06 173.97 136.27 C 170.79 135.72 167.29 134.12 167.52 130.31 C 169.58 128.25 170.67 125.55 169.65 122.68 Z"
       id="path343" />
    <path
       fill="#bc2f22"
       opacity="1.00"
       d=" M 40.76 130.00 C 41.61 126.74 45.11 125.65 47.92 124.66 C 49.21 125.11 50.50 125.57 51.80 126.02 C 52.05 126.62 52.56 127.84 52.81 128.45 C 53.56 128.37 55.07 128.22 55.83 128.15 C 57.66 131.21 52.27 130.29 50.68 130.02 C 49.51 129.57 48.37 129.07 47.23 128.56 C 46.54 129.39 45.85 130.22 45.16 131.05 C 45.76 132.22 46.33 133.41 47.03 134.53 L 47.61 135.43 C 46.78 136.36 45.89 137.22 44.93 138.00 C 42.91 139.90 42.73 135.86 42.44 134.75 C 41.56 135.50 40.68 136.25 39.80 137.01 C 37.27 134.84 40.03 132.31 40.76 130.00 Z"
       id="path345" />
    <path
       fill="#bc2f22"
       opacity="1.00"
       d=" M 176.09 137.00 C 178.49 137.46 179.60 139.81 180.87 141.62 C 179.00 142.28 177.45 143.44 176.63 145.28 C 173.81 146.66 172.04 144.34 171.38 141.81 C 172.04 141.37 173.37 140.49 174.03 140.04 C 174.72 139.05 174.80 137.38 176.09 137.00 Z"
       id="path347" />
  </g>
  <g
     id="#4b99c9ff">
    <path
       fill="#4b99c9"
       opacity="1.00"
       d=" M 96.85 42.89 C 97.89 42.64 98.92 42.36 99.96 42.09 C 100.31 43.16 100.71 44.20 101.10 45.25 C 98.37 47.22 97.07 50.35 97.57 53.69 C 99.26 51.12 100.31 48.21 101.10 45.25 C 101.74 46.92 102.34 48.60 102.92 50.29 C 106.36 49.25 110.00 48.86 113.54 49.64 C 111.98 49.89 110.43 50.19 108.88 50.49 C 110.42 50.94 111.97 51.36 113.48 51.93 C 112.92 53.67 111.87 55.18 110.82 56.65 C 110.25 56.41 109.12 55.92 108.56 55.67 C 107.22 55.45 105.86 55.33 104.51 55.18 C 104.14 55.72 103.41 56.79 103.04 57.32 C 101.42 57.33 99.79 57.34 98.17 57.33 C 99.35 56.47 100.52 55.60 101.68 54.73 C 101.70 54.04 101.73 52.67 101.74 51.98 C 100.21 53.10 98.58 54.22 97.71 55.97 L 97.21 55.77 C 95.20 54.48 93.08 52.06 95.38 49.94 L 96.02 48.88 C 96.15 48.17 96.41 46.75 96.54 46.03 C 96.66 44.99 96.76 43.94 96.85 42.89 Z"
       id="path350" />
    <path
       fill="#4b99c9"
       opacity="1.00"
       d=" M 128.34 50.69 C 131.98 48.43 136.35 47.75 140.27 49.80 L 139.22 50.23 C 138.88 50.28 138.19 50.39 137.85 50.44 C 133.93 50.55 130.46 52.62 127.95 55.53 L 127.87 55.54 C 125.69 55.39 123.60 56.07 121.76 57.21 C 122.68 53.98 125.35 51.92 128.34 50.69 Z"
       id="path352" />
    <path
       fill="#4b99c9"
       opacity="1.00"
       d=" M 116.54 53.24 C 118.04 53.49 119.54 53.75 121.04 54.00 C 120.61 54.61 119.77 55.83 119.34 56.44 C 118.03 55.83 116.67 55.31 115.32 54.79 C 115.63 54.40 116.23 53.63 116.54 53.24 Z"
       id="path354" />
    <path
       fill="#4b99c9"
       opacity="1.00"
       d=" M 114.99 61.02 C 116.78 59.74 118.62 58.52 120.52 57.40 L 121.26 58.01 C 119.71 59.93 117.27 60.50 114.99 61.02 Z"
       id="path356" />
    <path
       fill="#4b99c9"
       opacity="1.00"
       d=" M 120.20 63.49 C 123.14 63.47 124.14 66.34 125.76 68.24 C 126.79 70.20 126.79 72.33 126.05 74.40 C 120.67 75.61 115.16 76.10 109.65 75.92 L 110.25 75.24 C 111.32 74.02 112.26 72.70 113.23 71.40 C 116.53 71.88 119.97 71.76 122.79 69.76 C 120.61 68.35 120.32 65.85 120.20 63.49 Z"
       id="path358" />
    <path
       fill="#4b99c9"
       opacity="1.00"
       d=" M 105.50 65.01 C 106.39 63.89 109.09 65.06 107.92 66.45 C 107.01 67.45 104.45 66.42 105.50 65.01 Z"
       id="path360" />
    <path
       fill="#4b99c9"
       opacity="1.00"
       d=" M 112.33 80.45 C 123.59 80.30 134.26 76.60 144.82 73.10 C 143.94 84.87 142.30 96.97 145.63 108.53 C 146.92 113.50 149.79 117.81 152.02 122.38 C 138.99 122.89 125.90 121.91 112.90 122.89 L 112.29 122.98 L 112.29 122.37 C 112.38 108.39 112.33 94.42 112.33 80.45 M 128.19 85.52 C 122.08 86.45 118.96 92.39 118.05 97.94 L 118.26 98.24 C 118.01 101.44 120.76 103.43 122.53 105.67 C 121.81 106.71 121.00 107.68 120.28 108.72 L 119.75 108.40 C 118.22 112.07 115.74 115.54 115.98 119.70 C 125.73 118.56 135.50 119.91 145.22 120.62 C 143.90 119.58 142.40 118.82 140.94 117.99 C 141.69 117.99 143.17 117.99 143.91 117.99 C 142.48 114.11 142.92 109.83 141.28 106.02 C 138.53 105.75 135.70 104.89 132.96 105.65 C 135.08 104.72 136.01 102.17 138.56 101.99 C 137.95 100.23 138.79 98.96 140.43 98.29 C 140.53 96.25 141.15 94.10 140.12 92.19 L 140.50 91.48 L 139.60 91.31 C 140.32 89.65 139.84 88.79 138.14 88.71 L 136.59 88.27 C 136.87 87.66 137.44 86.43 137.72 85.82 L 136.82 86.79 C 135.30 86.03 133.77 85.29 132.22 84.59 C 130.90 84.99 129.56 85.32 128.19 85.52 Z"
       id="path362" />
    <path
       fill="#4b99c9"
       opacity="1.00"
       d=" M 74.41 73.66 C 75.36 73.63 77.25 73.58 78.20 73.56 C 79.20 74.93 80.28 76.25 81.35 77.58 C 82.41 77.54 83.47 77.50 84.53 77.47 C 85.63 76.49 86.74 75.51 87.84 74.53 C 89.59 74.57 91.33 74.60 93.08 74.61 L 93.33 75.71 C 93.56 76.85 93.80 77.99 94.03 79.13 C 98.17 80.03 102.41 80.33 106.63 80.50 C 106.67 94.59 106.71 108.69 106.62 122.79 C 102.09 122.99 97.55 122.91 93.02 122.70 C 92.62 122.42 91.82 121.87 91.42 121.59 C 91.88 118.91 92.32 116.23 92.56 113.52 C 93.37 112.57 94.13 111.58 94.90 110.59 C 95.58 110.52 96.93 110.38 97.60 110.31 C 97.07 106.19 95.39 102.18 95.49 98.02 C 95.93 97.74 96.82 97.18 97.27 96.90 C 97.29 95.92 97.30 94.93 97.34 93.95 C 97.42 93.01 97.53 92.08 97.67 91.15 C 97.79 90.52 98.01 89.26 98.12 88.63 C 96.58 88.60 95.04 88.57 93.50 88.55 C 93.46 87.74 93.38 86.14 93.34 85.33 C 93.34 85.23 93.32 85.01 93.32 84.90 C 92.68 84.30 92.04 83.70 91.40 83.11 C 90.64 81.52 88.07 82.25 88.72 84.07 C 88.73 85.18 88.73 86.29 88.73 87.40 C 86.62 88.39 84.50 89.37 82.36 90.33 C 81.74 94.07 84.08 96.99 86.13 99.81 C 84.26 101.43 82.60 103.26 81.10 105.22 C 80.74 106.58 80.50 107.98 80.23 109.36 C 82.73 110.04 85.22 110.74 87.71 111.47 C 87.05 115.16 86.64 118.90 86.44 122.64 C 79.86 123.09 73.27 122.78 66.68 122.84 C 77.34 108.86 76.73 90.19 74.41 73.66 Z"
       id="path364" />
    <path
       fill="#4b99c9"
       opacity="1.00"
       d=" M 125.96 96.07 C 127.49 94.64 129.42 91.93 131.79 93.16 C 132.24 94.51 131.63 95.87 131.45 97.22 C 129.76 97.40 128.08 97.59 126.40 97.79 C 126.29 97.36 126.07 96.50 125.96 96.07 Z"
       id="path366" />
    <path
       fill="#4b99c9"
       opacity="1.00"
       d=" M 65.37 128.52 C 69.56 128.25 73.75 128.22 77.95 128.28 C 103.19 128.31 128.44 128.26 153.69 128.29 C 153.70 130.36 153.72 132.42 153.71 134.49 C 153.56 137.28 152.36 139.85 151.48 142.47 C 148.56 140.05 144.69 139.29 141.04 138.76 C 133.10 137.96 125.16 136.75 117.46 134.63 C 115.13 132.44 112.42 130.30 109.09 130.14 C 107.99 130.60 107.31 131.65 106.45 132.43 C 105.91 132.52 104.83 132.70 104.29 132.80 C 102.79 135.57 100.72 138.01 98.08 139.76 C 93.67 139.21 89.58 140.82 85.53 142.27 C 80.48 143.03 75.03 141.44 70.49 144.49 L 68.90 144.99 C 68.50 144.24 68.12 143.47 67.76 142.70 C 67.04 141.02 66.48 139.25 66.25 137.42 C 65.92 134.46 65.65 131.49 65.37 128.52 Z"
       id="path368" />
    <path
       fill="#4b99c9"
       opacity="1.00"
       d=" M 118.65 158.11 C 121.72 154.69 126.46 155.59 130.54 155.14 C 130.53 155.53 130.49 156.31 130.47 156.70 C 131.52 156.74 132.57 156.78 133.62 156.82 C 133.51 156.29 133.27 155.21 133.15 154.67 C 133.93 154.61 135.49 154.48 136.27 154.41 C 136.98 154.48 138.40 154.62 139.11 154.69 C 139.99 155.26 140.87 155.84 141.76 156.41 C 141.37 156.78 140.97 157.14 140.57 157.50 C 138.61 157.52 136.65 157.59 134.70 157.69 C 135.44 158.61 136.18 159.54 136.92 160.46 C 134.27 162.36 131.73 164.51 128.69 165.77 C 125.68 166.56 122.50 166.58 119.55 167.62 C 119.75 169.79 118.21 171.06 116.31 171.59 C 114.36 171.55 112.41 171.18 110.77 170.05 C 112.71 169.64 114.65 169.25 116.59 168.82 C 114.20 167.26 111.35 167.51 108.65 167.65 C 108.40 166.47 108.05 165.32 107.46 164.26 C 107.68 163.89 108.13 163.16 108.35 162.79 C 107.34 162.11 106.32 161.44 105.31 160.77 C 105.85 160.08 106.39 159.39 106.93 158.70 C 111.19 157.28 115.50 155.90 119.99 155.43 C 118.97 156.96 117.55 158.11 116.02 159.11 C 116.36 159.18 117.02 159.31 117.36 159.37 C 114.69 159.21 112.01 159.61 109.60 160.82 C 113.12 162.48 117.90 163.77 121.20 161.01 C 121.85 160.45 122.49 159.87 123.12 159.28 C 121.62 158.90 120.14 158.50 118.65 158.11 M 124.10 160.23 C 124.29 161.83 126.98 161.39 127.16 159.99 C 126.93 158.44 124.31 158.85 124.10 160.23 M 130.78 160.00 C 127.63 158.25 128.30 163.02 130.90 160.58 C 131.66 161.33 134.35 161.03 133.53 159.58 C 132.47 158.90 131.56 159.04 130.78 160.00 M 109.47 163.13 C 109.61 164.51 110.29 164.77 111.51 163.89 C 111.37 162.51 110.69 162.26 109.47 163.13 M 110.05 165.60 C 113.78 164.79 117.33 167.08 121.02 166.18 C 122.53 165.71 124.78 166.09 125.31 164.17 C 122.18 164.94 118.60 166.32 115.94 163.65 C 114.00 164.38 112.04 165.03 110.05 165.60 Z"
       id="path370" />
    <path
       fill="#4b99c9"
       opacity="1.00"
       d=" M 113.06 160.25 C 113.61 160.81 113.61 160.81 113.06 160.25 Z"
       id="path372" />
    <path
       fill="#4b99c9"
       opacity="1.00"
       d=" M 19.99 161.90 C 28.38 163.22 36.67 165.12 44.98 166.90 C 51.99 168.54 59.25 169.86 65.64 173.34 C 67.76 174.15 66.45 176.69 66.64 178.36 C 70.78 179.80 75.14 180.32 79.49 180.57 C 80.29 180.62 81.08 180.67 81.88 180.73 C 92.91 181.65 103.98 181.04 115.03 181.13 C 122.47 181.10 129.93 181.53 137.35 180.76 C 137.89 180.72 138.97 180.63 139.51 180.59 C 143.82 180.34 148.12 179.92 152.35 179.04 C 151.26 175.27 153.89 172.29 157.42 171.47 C 171.15 167.53 185.08 164.10 199.21 161.91 C 198.02 163.83 196.93 165.83 195.55 167.63 C 191.82 169.19 187.67 169.51 183.76 170.46 C 183.43 170.46 182.78 170.47 182.45 170.48 L 182.15 170.74 L 181.27 171.04 C 177.36 171.83 173.64 173.35 169.71 174.08 C 169.16 174.16 168.04 174.31 167.48 174.38 L 167.18 174.67 L 166.30 175.00 C 165.03 175.37 163.84 175.96 162.66 176.55 C 162.94 178.32 164.65 180.44 163.84 182.14 C 163.44 182.25 162.65 182.47 162.26 182.58 C 158.30 184.06 154.10 184.59 149.99 185.43 C 149.80 185.73 149.41 186.33 149.21 186.63 L 149.02 186.78 L 148.14 185.80 C 129.81 187.96 111.35 186.94 92.95 187.26 C 91.74 187.38 90.54 187.53 89.34 187.71 C 87.95 187.54 86.56 187.34 85.18 187.16 C 82.39 186.59 79.54 186.53 76.71 186.53 C 76.42 186.48 75.83 186.38 75.54 186.33 C 68.80 185.16 61.97 184.39 55.41 182.33 C 55.19 181.48 54.96 180.64 54.71 179.81 C 55.02 179.34 55.65 178.39 55.96 177.92 C 56.19 177.53 56.65 176.75 56.88 176.36 C 48.96 173.79 40.90 171.21 32.59 170.40 L 32.50 170.40 C 29.68 168.75 26.31 168.60 23.21 167.79 C 22.14 165.82 21.06 163.86 19.99 161.90 Z"
       id="path374" />
    <path
       fill="#4b99c9"
       opacity="1.00"
       d=" M 117.46 189.16 C 118.68 188.27 119.44 188.47 119.72 189.77 C 118.49 190.65 117.74 190.45 117.46 189.16 Z"
       id="path376" />
  </g>
  <g
     id="#2c9342ff">
    <path
       fill="#2c9342"
       opacity="1.00"
       d=" M 156.87 46.27 C 162.30 51.47 170.06 52.32 176.52 55.63 C 179.57 57.09 179.65 60.85 179.31 63.76 C 176.39 67.37 173.58 71.81 168.57 72.55 C 167.52 72.24 166.46 71.97 165.40 71.71 C 164.76 71.67 163.48 71.60 162.83 71.56 C 158.13 78.60 158.34 88.17 162.50 95.41 C 165.81 101.28 170.59 106.32 176.05 110.26 C 176.39 110.49 177.08 110.94 177.42 111.17 C 177.27 113.71 177.36 116.26 177.70 118.78 C 171.78 113.90 165.84 108.92 161.31 102.66 C 156.19 96.45 153.52 87.96 155.02 79.99 C 156.44 73.83 162.58 71.19 167.03 67.55 C 169.50 66.35 172.19 65.70 174.83 64.98 C 174.33 63.50 173.85 62.02 173.27 60.57 C 167.90 56.67 160.98 55.74 155.67 51.84 C 155.36 51.33 154.76 50.30 154.46 49.79 C 155.21 48.58 156.01 47.41 156.87 46.27 Z"
       id="path379" />
    <path
       fill="#2c9342"
       opacity="1.00"
       d=" M 42.72 55.72 C 48.71 52.84 55.19 51.08 61.19 48.19 C 61.93 49.55 62.68 50.91 63.46 52.25 C 57.78 55.15 51.36 56.65 46.25 60.62 C 46.82 61.79 47.32 63.00 47.76 64.23 C 51.38 66.93 54.82 69.87 58.63 72.33 C 62.30 74.54 64.75 78.66 64.74 82.97 C 64.87 91.38 61.39 99.65 55.89 105.92 C 51.47 110.56 46.36 114.46 41.49 118.62 C 41.79 116.72 41.89 114.81 41.92 112.90 C 41.94 112.63 41.97 112.09 41.98 111.82 C 47.09 106.98 52.84 102.57 56.32 96.29 C 60.82 88.87 61.41 78.77 56.34 71.47 C 55.74 71.55 54.54 71.71 53.94 71.78 C 52.80 71.96 51.66 72.11 50.52 72.24 C 48.96 72.43 47.30 72.04 46.15 70.93 C 43.66 68.63 41.30 66.10 39.53 63.19 C 39.97 60.55 39.83 57.01 42.72 55.72 Z"
       id="path381" />
  </g>
</svg>
